<mxfile host="app.diagrams.net" modified="2020-11-14T05:13:56.074Z" agent="5.0 (Windows NT 10.0; Win64; x64) AppleWebKit/537.36 (KHTML, like Gecko) Chrome/86.0.4240.193 Safari/537.36" etag="sdfrSrHgxuio8QkCInZ7" version="13.9.7" type="github">
  <diagram id="Tc2qKA26BA0Cz631K7pC" name="Page-1">
    <mxGraphModel dx="3129" dy="2323" grid="1" gridSize="10" guides="1" tooltips="1" connect="1" arrows="1" fold="1" page="1" pageScale="1" pageWidth="827" pageHeight="1169" math="0" shadow="0">
      <root>
        <mxCell id="0" />
        <mxCell id="1" parent="0" />
        <mxCell id="ByDJQVCLJqGfF-_jV3qt-1" value="KIOSK" style="swimlane;fontStyle=1;align=center;verticalAlign=top;childLayout=stackLayout;horizontal=1;startSize=26;horizontalStack=0;resizeParent=1;resizeParentMax=0;resizeLast=0;collapsible=1;marginBottom=0;" parent="1" vertex="1">
          <mxGeometry y="200" width="160" height="138" as="geometry" />
        </mxCell>
        <mxCell id="ByDJQVCLJqGfF-_jV3qt-5" value="- 이름 : String" style="text;strokeColor=none;fillColor=none;align=left;verticalAlign=top;spacingLeft=4;spacingRight=4;overflow=hidden;rotatable=0;points=[[0,0.5],[1,0.5]];portConstraint=eastwest;" parent="ByDJQVCLJqGfF-_jV3qt-1" vertex="1">
          <mxGeometry y="26" width="160" height="26" as="geometry" />
        </mxCell>
        <mxCell id="ByDJQVCLJqGfF-_jV3qt-2" value="- 주소 : String&#xa;" style="text;strokeColor=none;fillColor=none;align=left;verticalAlign=top;spacingLeft=4;spacingRight=4;overflow=hidden;rotatable=0;points=[[0,0.5],[1,0.5]];portConstraint=eastwest;" parent="ByDJQVCLJqGfF-_jV3qt-1" vertex="1">
          <mxGeometry y="52" width="160" height="26" as="geometry" />
        </mxCell>
        <mxCell id="X9svfKhv0r-nfiWAxkPa-40" value="" style="endArrow=none;html=1;edgeStyle=orthogonalEdgeStyle;entryX=0;entryY=0.5;entryDx=0;entryDy=0;" edge="1" parent="ByDJQVCLJqGfF-_jV3qt-1" target="ByDJQVCLJqGfF-_jV3qt-13">
          <mxGeometry relative="1" as="geometry">
            <mxPoint x="160" y="68.5" as="sourcePoint" />
            <mxPoint x="230" y="60" as="targetPoint" />
            <Array as="points">
              <mxPoint x="230" y="69" />
              <mxPoint x="230" y="21" />
            </Array>
          </mxGeometry>
        </mxCell>
        <mxCell id="ByDJQVCLJqGfF-_jV3qt-14" value="- 키오스크 : KIOSK&#xa;" style="text;strokeColor=none;fillColor=none;align=left;verticalAlign=top;spacingLeft=4;spacingRight=4;overflow=hidden;rotatable=0;points=[[0,0.5],[1,0.5]];portConstraint=eastwest;" parent="ByDJQVCLJqGfF-_jV3qt-1" vertex="1">
          <mxGeometry y="78" width="160" height="26" as="geometry" />
        </mxCell>
        <mxCell id="ByDJQVCLJqGfF-_jV3qt-3" value="" style="line;strokeWidth=1;fillColor=none;align=left;verticalAlign=middle;spacingTop=-1;spacingLeft=3;spacingRight=3;rotatable=0;labelPosition=right;points=[];portConstraint=eastwest;" parent="ByDJQVCLJqGfF-_jV3qt-1" vertex="1">
          <mxGeometry y="104" width="160" height="8" as="geometry" />
        </mxCell>
        <mxCell id="ByDJQVCLJqGfF-_jV3qt-4" value="getRole(String) : String" style="text;strokeColor=none;fillColor=none;align=left;verticalAlign=top;spacingLeft=4;spacingRight=4;overflow=hidden;rotatable=0;points=[[0,0.5],[1,0.5]];portConstraint=eastwest;" parent="ByDJQVCLJqGfF-_jV3qt-1" vertex="1">
          <mxGeometry y="112" width="160" height="26" as="geometry" />
        </mxCell>
        <mxCell id="ByDJQVCLJqGfF-_jV3qt-6" value="Order" style="swimlane;fontStyle=1;align=center;verticalAlign=top;childLayout=stackLayout;horizontal=1;startSize=26;horizontalStack=0;resizeParent=1;resizeParentMax=0;resizeLast=0;collapsible=1;marginBottom=0;" parent="1" vertex="1">
          <mxGeometry x="260" y="130" width="290" height="242" as="geometry" />
        </mxCell>
        <mxCell id="ByDJQVCLJqGfF-_jV3qt-10" value="- 주문 번호 : String" style="text;strokeColor=none;fillColor=none;align=left;verticalAlign=top;spacingLeft=4;spacingRight=4;overflow=hidden;rotatable=0;points=[[0,0.5],[1,0.5]];portConstraint=eastwest;" parent="ByDJQVCLJqGfF-_jV3qt-6" vertex="1">
          <mxGeometry y="26" width="290" height="26" as="geometry" />
        </mxCell>
        <mxCell id="ByDJQVCLJqGfF-_jV3qt-226" value="- 포장 여부 : String" style="text;strokeColor=none;fillColor=none;align=left;verticalAlign=top;spacingLeft=4;spacingRight=4;overflow=hidden;rotatable=0;points=[[0,0.5],[1,0.5]];portConstraint=eastwest;" parent="ByDJQVCLJqGfF-_jV3qt-6" vertex="1">
          <mxGeometry y="52" width="290" height="26" as="geometry" />
        </mxCell>
        <mxCell id="ByDJQVCLJqGfF-_jV3qt-13" value="- 샌드위치 리스트 : ArrayList&lt;Sandwich&gt;" style="text;strokeColor=none;fillColor=none;align=left;verticalAlign=top;spacingLeft=4;spacingRight=4;overflow=hidden;rotatable=0;points=[[0,0.5],[1,0.5]];portConstraint=eastwest;" parent="ByDJQVCLJqGfF-_jV3qt-6" vertex="1">
          <mxGeometry y="78" width="290" height="26" as="geometry" />
        </mxCell>
        <mxCell id="ByDJQVCLJqGfF-_jV3qt-12" value="-  찹샐러드 리스트 : ArrayList&lt;Salad&gt;" style="text;strokeColor=none;fillColor=none;align=left;verticalAlign=top;spacingLeft=4;spacingRight=4;overflow=hidden;rotatable=0;points=[[0,0.5],[1,0.5]];portConstraint=eastwest;" parent="ByDJQVCLJqGfF-_jV3qt-6" vertex="1">
          <mxGeometry y="104" width="290" height="26" as="geometry" />
        </mxCell>
        <mxCell id="ByDJQVCLJqGfF-_jV3qt-7" value="- 랩 리스트 : ArrayList&lt;Wrap&gt;" style="text;strokeColor=none;fillColor=none;align=left;verticalAlign=top;spacingLeft=4;spacingRight=4;overflow=hidden;rotatable=0;points=[[0,0.5],[1,0.5]];portConstraint=eastwest;" parent="ByDJQVCLJqGfF-_jV3qt-6" vertex="1">
          <mxGeometry y="130" width="290" height="26" as="geometry" />
        </mxCell>
        <mxCell id="ByDJQVCLJqGfF-_jV3qt-15" value="- 음료 리스트 : ArrayList&lt;Drink&gt;" style="text;strokeColor=none;fillColor=none;align=left;verticalAlign=top;spacingLeft=4;spacingRight=4;overflow=hidden;rotatable=0;points=[[0,0.5],[1,0.5]];portConstraint=eastwest;" parent="ByDJQVCLJqGfF-_jV3qt-6" vertex="1">
          <mxGeometry y="156" width="290" height="26" as="geometry" />
        </mxCell>
        <mxCell id="ByDJQVCLJqGfF-_jV3qt-16" value="- 사이드 리스트 : ArrayList&lt;Side&gt;" style="text;strokeColor=none;fillColor=none;align=left;verticalAlign=top;spacingLeft=4;spacingRight=4;overflow=hidden;rotatable=0;points=[[0,0.5],[1,0.5]];portConstraint=eastwest;" parent="ByDJQVCLJqGfF-_jV3qt-6" vertex="1">
          <mxGeometry y="182" width="290" height="26" as="geometry" />
        </mxCell>
        <mxCell id="ByDJQVCLJqGfF-_jV3qt-8" value="" style="line;strokeWidth=1;fillColor=none;align=left;verticalAlign=middle;spacingTop=-1;spacingLeft=3;spacingRight=3;rotatable=0;labelPosition=right;points=[];portConstraint=eastwest;" parent="ByDJQVCLJqGfF-_jV3qt-6" vertex="1">
          <mxGeometry y="208" width="290" height="8" as="geometry" />
        </mxCell>
        <mxCell id="ByDJQVCLJqGfF-_jV3qt-9" value="+ " style="text;strokeColor=none;fillColor=none;align=left;verticalAlign=top;spacingLeft=4;spacingRight=4;overflow=hidden;rotatable=0;points=[[0,0.5],[1,0.5]];portConstraint=eastwest;" parent="ByDJQVCLJqGfF-_jV3qt-6" vertex="1">
          <mxGeometry y="216" width="290" height="26" as="geometry" />
        </mxCell>
        <mxCell id="ByDJQVCLJqGfF-_jV3qt-17" value="장바구니 컨트롤러" style="swimlane;fontStyle=1;align=center;verticalAlign=top;childLayout=stackLayout;horizontal=1;startSize=26;horizontalStack=0;resizeParent=1;resizeParentMax=0;resizeLast=0;collapsible=1;marginBottom=0;" parent="1" vertex="1">
          <mxGeometry x="-10" y="450" width="370" height="306" as="geometry" />
        </mxCell>
        <mxCell id="ByDJQVCLJqGfF-_jV3qt-18" value="- order : Order" style="text;strokeColor=none;fillColor=none;align=left;verticalAlign=top;spacingLeft=4;spacingRight=4;overflow=hidden;rotatable=0;points=[[0,0.5],[1,0.5]];portConstraint=eastwest;" parent="ByDJQVCLJqGfF-_jV3qt-17" vertex="1">
          <mxGeometry y="26" width="370" height="26" as="geometry" />
        </mxCell>
        <mxCell id="ByDJQVCLJqGfF-_jV3qt-19" value="" style="line;strokeWidth=1;fillColor=none;align=left;verticalAlign=middle;spacingTop=-1;spacingLeft=3;spacingRight=3;rotatable=0;labelPosition=right;points=[];portConstraint=eastwest;" parent="ByDJQVCLJqGfF-_jV3qt-17" vertex="1">
          <mxGeometry y="52" width="370" height="8" as="geometry" />
        </mxCell>
        <mxCell id="ByDJQVCLJqGfF-_jV3qt-20" value="+  샌드위치 추가(String, String, String, String, ArrayList&lt;String&gt;,&#xa;ArrayList&lt;String&gt;) : void" style="text;strokeColor=none;fillColor=none;align=left;verticalAlign=top;spacingLeft=4;spacingRight=4;overflow=hidden;rotatable=0;points=[[0,0.5],[1,0.5]];portConstraint=eastwest;" parent="ByDJQVCLJqGfF-_jV3qt-17" vertex="1">
          <mxGeometry y="60" width="370" height="50" as="geometry" />
        </mxCell>
        <mxCell id="ByDJQVCLJqGfF-_jV3qt-35" value="+  샐러드 추가(String, String, ArrayList&lt;String&gt;, ArrayList&lt;String&gt;) :&#xa;void" style="text;strokeColor=none;fillColor=none;align=left;verticalAlign=top;spacingLeft=4;spacingRight=4;overflow=hidden;rotatable=0;points=[[0,0.5],[1,0.5]];portConstraint=eastwest;" parent="ByDJQVCLJqGfF-_jV3qt-17" vertex="1">
          <mxGeometry y="110" width="370" height="40" as="geometry" />
        </mxCell>
        <mxCell id="ByDJQVCLJqGfF-_jV3qt-36" value="+ 랩 추가(String, String) : void" style="text;strokeColor=none;fillColor=none;align=left;verticalAlign=top;spacingLeft=4;spacingRight=4;overflow=hidden;rotatable=0;points=[[0,0.5],[1,0.5]];portConstraint=eastwest;" parent="ByDJQVCLJqGfF-_jV3qt-17" vertex="1">
          <mxGeometry y="150" width="370" height="26" as="geometry" />
        </mxCell>
        <mxCell id="ByDJQVCLJqGfF-_jV3qt-37" value="+ 음료 추가(String, String, String) : void" style="text;strokeColor=none;fillColor=none;align=left;verticalAlign=top;spacingLeft=4;spacingRight=4;overflow=hidden;rotatable=0;points=[[0,0.5],[1,0.5]];portConstraint=eastwest;" parent="ByDJQVCLJqGfF-_jV3qt-17" vertex="1">
          <mxGeometry y="176" width="370" height="26" as="geometry" />
        </mxCell>
        <mxCell id="ByDJQVCLJqGfF-_jV3qt-38" value="+ 사이드 추가(String, String) : void" style="text;strokeColor=none;fillColor=none;align=left;verticalAlign=top;spacingLeft=4;spacingRight=4;overflow=hidden;rotatable=0;points=[[0,0.5],[1,0.5]];portConstraint=eastwest;" parent="ByDJQVCLJqGfF-_jV3qt-17" vertex="1">
          <mxGeometry y="202" width="370" height="26" as="geometry" />
        </mxCell>
        <mxCell id="ByDJQVCLJqGfF-_jV3qt-223" value="+ 아이템 삭제(String, String) : void" style="text;strokeColor=none;fillColor=none;align=left;verticalAlign=top;spacingLeft=4;spacingRight=4;overflow=hidden;rotatable=0;points=[[0,0.5],[1,0.5]];portConstraint=eastwest;" parent="ByDJQVCLJqGfF-_jV3qt-17" vertex="1">
          <mxGeometry y="228" width="370" height="26" as="geometry" />
        </mxCell>
        <mxCell id="ByDJQVCLJqGfF-_jV3qt-224" value="+ 수량 추가(String, String) : void" style="text;strokeColor=none;fillColor=none;align=left;verticalAlign=top;spacingLeft=4;spacingRight=4;overflow=hidden;rotatable=0;points=[[0,0.5],[1,0.5]];portConstraint=eastwest;" parent="ByDJQVCLJqGfF-_jV3qt-17" vertex="1">
          <mxGeometry y="254" width="370" height="26" as="geometry" />
        </mxCell>
        <mxCell id="ByDJQVCLJqGfF-_jV3qt-225" value="+ 수량 감소(String, String) : void" style="text;strokeColor=none;fillColor=none;align=left;verticalAlign=top;spacingLeft=4;spacingRight=4;overflow=hidden;rotatable=0;points=[[0,0.5],[1,0.5]];portConstraint=eastwest;" parent="ByDJQVCLJqGfF-_jV3qt-17" vertex="1">
          <mxGeometry y="280" width="370" height="26" as="geometry" />
        </mxCell>
        <mxCell id="ByDJQVCLJqGfF-_jV3qt-27" value="Menu" style="swimlane;fontStyle=1;align=center;verticalAlign=top;childLayout=stackLayout;horizontal=1;startSize=26;horizontalStack=0;resizeParent=1;resizeParentMax=0;resizeLast=0;collapsible=1;marginBottom=0;" parent="1" vertex="1">
          <mxGeometry x="640" y="20" width="310" height="320" as="geometry" />
        </mxCell>
        <mxCell id="ByDJQVCLJqGfF-_jV3qt-28" value="- SandwichTypeNameAndPrice :ArrayList&lt;MenuInfo&gt;" style="text;strokeColor=none;fillColor=none;align=left;verticalAlign=top;spacingLeft=4;spacingRight=4;overflow=hidden;rotatable=0;points=[[0,0.5],[1,0.5]];portConstraint=eastwest;" parent="ByDJQVCLJqGfF-_jV3qt-27" vertex="1">
          <mxGeometry y="26" width="310" height="26" as="geometry" />
        </mxCell>
        <mxCell id="ByDJQVCLJqGfF-_jV3qt-77" value="- SandwichSizeNameAndPrice : ArrayList&lt;MenuInfo&gt;" style="text;strokeColor=none;fillColor=none;align=left;verticalAlign=top;spacingLeft=4;spacingRight=4;overflow=hidden;rotatable=0;points=[[0,0.5],[1,0.5]];portConstraint=eastwest;" parent="ByDJQVCLJqGfF-_jV3qt-27" vertex="1">
          <mxGeometry y="52" width="310" height="26" as="geometry" />
        </mxCell>
        <mxCell id="ByDJQVCLJqGfF-_jV3qt-32" value="- SaladTypeNameAndPrice :ArrayList&lt;MenuInfo&gt;" style="text;strokeColor=none;fillColor=none;align=left;verticalAlign=top;spacingLeft=4;spacingRight=4;overflow=hidden;rotatable=0;points=[[0,0.5],[1,0.5]];portConstraint=eastwest;" parent="ByDJQVCLJqGfF-_jV3qt-27" vertex="1">
          <mxGeometry y="78" width="310" height="26" as="geometry" />
        </mxCell>
        <mxCell id="ByDJQVCLJqGfF-_jV3qt-31" value="- WrapTypeNameAndPrice : ArrayList&lt;MenuInfo&gt;" style="text;strokeColor=none;fillColor=none;align=left;verticalAlign=top;spacingLeft=4;spacingRight=4;overflow=hidden;rotatable=0;points=[[0,0.5],[1,0.5]];portConstraint=eastwest;" parent="ByDJQVCLJqGfF-_jV3qt-27" vertex="1">
          <mxGeometry y="104" width="310" height="26" as="geometry" />
        </mxCell>
        <mxCell id="ByDJQVCLJqGfF-_jV3qt-33" value="- DrinkSizeNameAndPrice : ArrayList&lt;MenuInfo&gt;" style="text;strokeColor=none;fillColor=none;align=left;verticalAlign=top;spacingLeft=4;spacingRight=4;overflow=hidden;rotatable=0;points=[[0,0.5],[1,0.5]];portConstraint=eastwest;" parent="ByDJQVCLJqGfF-_jV3qt-27" vertex="1">
          <mxGeometry y="130" width="310" height="26" as="geometry" />
        </mxCell>
        <mxCell id="ByDJQVCLJqGfF-_jV3qt-76" value="- DrinkTypeNameAndPrice : ArrayList&lt;MenuInfo&gt;" style="text;strokeColor=none;fillColor=none;align=left;verticalAlign=top;spacingLeft=4;spacingRight=4;overflow=hidden;rotatable=0;points=[[0,0.5],[1,0.5]];portConstraint=eastwest;" parent="ByDJQVCLJqGfF-_jV3qt-27" vertex="1">
          <mxGeometry y="156" width="310" height="26" as="geometry" />
        </mxCell>
        <mxCell id="ByDJQVCLJqGfF-_jV3qt-78" value="- SideTypeNameAndPrice :ArrayList&lt;MenuInfo&gt;" style="text;strokeColor=none;fillColor=none;align=left;verticalAlign=top;spacingLeft=4;spacingRight=4;overflow=hidden;rotatable=0;points=[[0,0.5],[1,0.5]];portConstraint=eastwest;" parent="ByDJQVCLJqGfF-_jV3qt-27" vertex="1">
          <mxGeometry y="182" width="310" height="26" as="geometry" />
        </mxCell>
        <mxCell id="ByDJQVCLJqGfF-_jV3qt-125" value="- menu : Menu" style="text;strokeColor=none;fillColor=none;align=left;verticalAlign=top;spacingLeft=4;spacingRight=4;overflow=hidden;rotatable=0;points=[[0,0.5],[1,0.5]];portConstraint=eastwest;" parent="ByDJQVCLJqGfF-_jV3qt-27" vertex="1">
          <mxGeometry y="208" width="310" height="26" as="geometry" />
        </mxCell>
        <mxCell id="ByDJQVCLJqGfF-_jV3qt-29" value="" style="line;strokeWidth=1;fillColor=none;align=left;verticalAlign=middle;spacingTop=-1;spacingLeft=3;spacingRight=3;rotatable=0;labelPosition=right;points=[];portConstraint=eastwest;" parent="ByDJQVCLJqGfF-_jV3qt-27" vertex="1">
          <mxGeometry y="234" width="310" height="8" as="geometry" />
        </mxCell>
        <mxCell id="ByDJQVCLJqGfF-_jV3qt-30" value="+ 메뉴추가(MenuInfo, String, String) : Void" style="text;strokeColor=none;fillColor=none;align=left;verticalAlign=top;spacingLeft=4;spacingRight=4;overflow=hidden;rotatable=0;points=[[0,0.5],[1,0.5]];portConstraint=eastwest;" parent="ByDJQVCLJqGfF-_jV3qt-27" vertex="1">
          <mxGeometry y="242" width="310" height="26" as="geometry" />
        </mxCell>
        <mxCell id="ByDJQVCLJqGfF-_jV3qt-79" value="+ 메뉴삭제(MenuInfo, String) : Void" style="text;strokeColor=none;fillColor=none;align=left;verticalAlign=top;spacingLeft=4;spacingRight=4;overflow=hidden;rotatable=0;points=[[0,0.5],[1,0.5]];portConstraint=eastwest;" parent="ByDJQVCLJqGfF-_jV3qt-27" vertex="1">
          <mxGeometry y="268" width="310" height="26" as="geometry" />
        </mxCell>
        <mxCell id="ByDJQVCLJqGfF-_jV3qt-80" value="+ 메뉴수정(MenuInfo, String. String) : Void" style="text;strokeColor=none;fillColor=none;align=left;verticalAlign=top;spacingLeft=4;spacingRight=4;overflow=hidden;rotatable=0;points=[[0,0.5],[1,0.5]];portConstraint=eastwest;" parent="ByDJQVCLJqGfF-_jV3qt-27" vertex="1">
          <mxGeometry y="294" width="310" height="26" as="geometry" />
        </mxCell>
        <mxCell id="ByDJQVCLJqGfF-_jV3qt-39" value="Sale" style="swimlane;fontStyle=1;align=center;verticalAlign=top;childLayout=stackLayout;horizontal=1;startSize=26;horizontalStack=0;resizeParent=1;resizeParentMax=0;resizeLast=0;collapsible=1;marginBottom=0;" parent="1" vertex="1">
          <mxGeometry x="440" y="440" width="130" height="86" as="geometry" />
        </mxCell>
        <mxCell id="ByDJQVCLJqGfF-_jV3qt-40" value="- 가격 : float" style="text;strokeColor=none;fillColor=none;align=left;verticalAlign=top;spacingLeft=4;spacingRight=4;overflow=hidden;rotatable=0;points=[[0,0.5],[1,0.5]];portConstraint=eastwest;" parent="ByDJQVCLJqGfF-_jV3qt-39" vertex="1">
          <mxGeometry y="26" width="130" height="26" as="geometry" />
        </mxCell>
        <mxCell id="ByDJQVCLJqGfF-_jV3qt-41" value="" style="line;strokeWidth=1;fillColor=none;align=left;verticalAlign=middle;spacingTop=-1;spacingLeft=3;spacingRight=3;rotatable=0;labelPosition=right;points=[];portConstraint=eastwest;" parent="ByDJQVCLJqGfF-_jV3qt-39" vertex="1">
          <mxGeometry y="52" width="130" height="8" as="geometry" />
        </mxCell>
        <mxCell id="ByDJQVCLJqGfF-_jV3qt-42" value="+" style="text;strokeColor=none;fillColor=none;align=left;verticalAlign=top;spacingLeft=4;spacingRight=4;overflow=hidden;rotatable=0;points=[[0,0.5],[1,0.5]];portConstraint=eastwest;" parent="ByDJQVCLJqGfF-_jV3qt-39" vertex="1">
          <mxGeometry y="60" width="130" height="26" as="geometry" />
        </mxCell>
        <mxCell id="ByDJQVCLJqGfF-_jV3qt-49" value="현금" style="swimlane;fontStyle=1;align=center;verticalAlign=top;childLayout=stackLayout;horizontal=1;startSize=26;horizontalStack=0;resizeParent=1;resizeParentMax=0;resizeLast=0;collapsible=1;marginBottom=0;" parent="1" vertex="1">
          <mxGeometry x="390" y="600" width="120" height="112" as="geometry" />
        </mxCell>
        <mxCell id="ByDJQVCLJqGfF-_jV3qt-50" value="- 지불 금액 : float" style="text;strokeColor=none;fillColor=none;align=left;verticalAlign=top;spacingLeft=4;spacingRight=4;overflow=hidden;rotatable=0;points=[[0,0.5],[1,0.5]];portConstraint=eastwest;" parent="ByDJQVCLJqGfF-_jV3qt-49" vertex="1">
          <mxGeometry y="26" width="120" height="26" as="geometry" />
        </mxCell>
        <mxCell id="ByDJQVCLJqGfF-_jV3qt-57" value="- 잔돈 : float" style="text;strokeColor=none;fillColor=none;align=left;verticalAlign=top;spacingLeft=4;spacingRight=4;overflow=hidden;rotatable=0;points=[[0,0.5],[1,0.5]];portConstraint=eastwest;" parent="ByDJQVCLJqGfF-_jV3qt-49" vertex="1">
          <mxGeometry y="52" width="120" height="26" as="geometry" />
        </mxCell>
        <mxCell id="ByDJQVCLJqGfF-_jV3qt-51" value="" style="line;strokeWidth=1;fillColor=none;align=left;verticalAlign=middle;spacingTop=-1;spacingLeft=3;spacingRight=3;rotatable=0;labelPosition=right;points=[];portConstraint=eastwest;" parent="ByDJQVCLJqGfF-_jV3qt-49" vertex="1">
          <mxGeometry y="78" width="120" height="8" as="geometry" />
        </mxCell>
        <mxCell id="ByDJQVCLJqGfF-_jV3qt-52" value="+" style="text;strokeColor=none;fillColor=none;align=left;verticalAlign=top;spacingLeft=4;spacingRight=4;overflow=hidden;rotatable=0;points=[[0,0.5],[1,0.5]];portConstraint=eastwest;" parent="ByDJQVCLJqGfF-_jV3qt-49" vertex="1">
          <mxGeometry y="86" width="120" height="26" as="geometry" />
        </mxCell>
        <mxCell id="ByDJQVCLJqGfF-_jV3qt-53" value="카드" style="swimlane;fontStyle=1;align=center;verticalAlign=top;childLayout=stackLayout;horizontal=1;startSize=26;horizontalStack=0;resizeParent=1;resizeParentMax=0;resizeLast=0;collapsible=1;marginBottom=0;" parent="1" vertex="1">
          <mxGeometry x="560" y="600" width="110" height="112" as="geometry" />
        </mxCell>
        <mxCell id="ByDJQVCLJqGfF-_jV3qt-54" value="- 이름 : String" style="text;strokeColor=none;fillColor=none;align=left;verticalAlign=top;spacingLeft=4;spacingRight=4;overflow=hidden;rotatable=0;points=[[0,0.5],[1,0.5]];portConstraint=eastwest;" parent="ByDJQVCLJqGfF-_jV3qt-53" vertex="1">
          <mxGeometry y="26" width="110" height="26" as="geometry" />
        </mxCell>
        <mxCell id="ByDJQVCLJqGfF-_jV3qt-58" value="- 카드 번호 : String" style="text;strokeColor=none;fillColor=none;align=left;verticalAlign=top;spacingLeft=4;spacingRight=4;overflow=hidden;rotatable=0;points=[[0,0.5],[1,0.5]];portConstraint=eastwest;" parent="ByDJQVCLJqGfF-_jV3qt-53" vertex="1">
          <mxGeometry y="52" width="110" height="26" as="geometry" />
        </mxCell>
        <mxCell id="ByDJQVCLJqGfF-_jV3qt-55" value="" style="line;strokeWidth=1;fillColor=none;align=left;verticalAlign=middle;spacingTop=-1;spacingLeft=3;spacingRight=3;rotatable=0;labelPosition=right;points=[];portConstraint=eastwest;" parent="ByDJQVCLJqGfF-_jV3qt-53" vertex="1">
          <mxGeometry y="78" width="110" height="8" as="geometry" />
        </mxCell>
        <mxCell id="ByDJQVCLJqGfF-_jV3qt-56" value="+" style="text;strokeColor=none;fillColor=none;align=left;verticalAlign=top;spacingLeft=4;spacingRight=4;overflow=hidden;rotatable=0;points=[[0,0.5],[1,0.5]];portConstraint=eastwest;" parent="ByDJQVCLJqGfF-_jV3qt-53" vertex="1">
          <mxGeometry y="86" width="110" height="26" as="geometry" />
        </mxCell>
        <mxCell id="ByDJQVCLJqGfF-_jV3qt-63" value="" style="endArrow=diamondThin;endFill=1;endSize=24;html=1;exitX=0.5;exitY=0;exitDx=0;exitDy=0;entryX=0.438;entryY=1;entryDx=0;entryDy=0;entryPerimeter=0;" parent="1" source="ByDJQVCLJqGfF-_jV3qt-39" target="ByDJQVCLJqGfF-_jV3qt-9" edge="1">
          <mxGeometry width="160" relative="1" as="geometry">
            <mxPoint x="370" y="400" as="sourcePoint" />
            <mxPoint x="530" y="400" as="targetPoint" />
            <Array as="points">
              <mxPoint x="505" y="390" />
              <mxPoint x="387" y="390" />
            </Array>
          </mxGeometry>
        </mxCell>
        <mxCell id="ByDJQVCLJqGfF-_jV3qt-64" value="1" style="text;html=1;strokeColor=none;fillColor=none;align=center;verticalAlign=middle;whiteSpace=wrap;rounded=0;" parent="1" vertex="1">
          <mxGeometry x="400" y="390" width="40" height="20" as="geometry" />
        </mxCell>
        <mxCell id="ByDJQVCLJqGfF-_jV3qt-65" value="1" style="text;html=1;strokeColor=none;fillColor=none;align=center;verticalAlign=middle;whiteSpace=wrap;rounded=0;" parent="1" vertex="1">
          <mxGeometry x="500" y="410" width="40" height="20" as="geometry" />
        </mxCell>
        <mxCell id="ByDJQVCLJqGfF-_jV3qt-68" value="결제 컨트롤러" style="swimlane;fontStyle=1;align=center;verticalAlign=top;childLayout=stackLayout;horizontal=1;startSize=26;horizontalStack=0;resizeParent=1;resizeParentMax=0;resizeLast=0;collapsible=1;marginBottom=0;" parent="1" vertex="1">
          <mxGeometry x="680" y="466" width="160" height="112" as="geometry" />
        </mxCell>
        <mxCell id="ByDJQVCLJqGfF-_jV3qt-69" value="- 지불 방법 : String" style="text;strokeColor=none;fillColor=none;align=left;verticalAlign=top;spacingLeft=4;spacingRight=4;overflow=hidden;rotatable=0;points=[[0,0.5],[1,0.5]];portConstraint=eastwest;" parent="ByDJQVCLJqGfF-_jV3qt-68" vertex="1">
          <mxGeometry y="26" width="160" height="26" as="geometry" />
        </mxCell>
        <mxCell id="ByDJQVCLJqGfF-_jV3qt-72" value="-  sale : Sale" style="text;strokeColor=none;fillColor=none;align=left;verticalAlign=top;spacingLeft=4;spacingRight=4;overflow=hidden;rotatable=0;points=[[0,0.5],[1,0.5]];portConstraint=eastwest;" parent="ByDJQVCLJqGfF-_jV3qt-68" vertex="1">
          <mxGeometry y="52" width="160" height="26" as="geometry" />
        </mxCell>
        <mxCell id="ByDJQVCLJqGfF-_jV3qt-70" value="" style="line;strokeWidth=1;fillColor=none;align=left;verticalAlign=middle;spacingTop=-1;spacingLeft=3;spacingRight=3;rotatable=0;labelPosition=right;points=[];portConstraint=eastwest;" parent="ByDJQVCLJqGfF-_jV3qt-68" vertex="1">
          <mxGeometry y="78" width="160" height="8" as="geometry" />
        </mxCell>
        <mxCell id="ByDJQVCLJqGfF-_jV3qt-71" value="+" style="text;strokeColor=none;fillColor=none;align=left;verticalAlign=top;spacingLeft=4;spacingRight=4;overflow=hidden;rotatable=0;points=[[0,0.5],[1,0.5]];portConstraint=eastwest;" parent="ByDJQVCLJqGfF-_jV3qt-68" vertex="1">
          <mxGeometry y="86" width="160" height="26" as="geometry" />
        </mxCell>
        <mxCell id="ByDJQVCLJqGfF-_jV3qt-81" value="LoginModel" style="swimlane;fontStyle=1;align=center;verticalAlign=top;childLayout=stackLayout;horizontal=1;startSize=26;horizontalStack=0;resizeParent=1;resizeParentMax=0;resizeLast=0;collapsible=1;marginBottom=0;" parent="1" vertex="1">
          <mxGeometry x="-10" y="-40" width="180" height="112" as="geometry" />
        </mxCell>
        <mxCell id="ByDJQVCLJqGfF-_jV3qt-103" value="- ID : String" style="text;strokeColor=none;fillColor=none;align=left;verticalAlign=top;spacingLeft=4;spacingRight=4;overflow=hidden;rotatable=0;points=[[0,0.5],[1,0.5]];portConstraint=eastwest;" parent="ByDJQVCLJqGfF-_jV3qt-81" vertex="1">
          <mxGeometry y="26" width="180" height="26" as="geometry" />
        </mxCell>
        <mxCell id="ByDJQVCLJqGfF-_jV3qt-82" value="- PW : String" style="text;strokeColor=none;fillColor=none;align=left;verticalAlign=top;spacingLeft=4;spacingRight=4;overflow=hidden;rotatable=0;points=[[0,0.5],[1,0.5]];portConstraint=eastwest;" parent="ByDJQVCLJqGfF-_jV3qt-81" vertex="1">
          <mxGeometry y="52" width="180" height="26" as="geometry" />
        </mxCell>
        <mxCell id="ByDJQVCLJqGfF-_jV3qt-83" value="" style="line;strokeWidth=1;fillColor=none;align=left;verticalAlign=middle;spacingTop=-1;spacingLeft=3;spacingRight=3;rotatable=0;labelPosition=right;points=[];portConstraint=eastwest;" parent="ByDJQVCLJqGfF-_jV3qt-81" vertex="1">
          <mxGeometry y="78" width="180" height="8" as="geometry" />
        </mxCell>
        <mxCell id="ByDJQVCLJqGfF-_jV3qt-84" value="승인(String, String) : Manager" style="text;strokeColor=none;fillColor=none;align=left;verticalAlign=top;spacingLeft=4;spacingRight=4;overflow=hidden;rotatable=0;points=[[0,0.5],[1,0.5]];portConstraint=eastwest;" parent="ByDJQVCLJqGfF-_jV3qt-81" vertex="1">
          <mxGeometry y="86" width="180" height="26" as="geometry" />
        </mxCell>
        <mxCell id="ByDJQVCLJqGfF-_jV3qt-88" value="로그인 컨트롤러" style="swimlane;fontStyle=1;align=center;verticalAlign=top;childLayout=stackLayout;horizontal=1;startSize=26;horizontalStack=0;resizeParent=1;resizeParentMax=0;resizeLast=0;collapsible=1;marginBottom=0;" parent="1" vertex="1">
          <mxGeometry x="240" y="-20" width="160" height="86" as="geometry" />
        </mxCell>
        <mxCell id="ByDJQVCLJqGfF-_jV3qt-89" value="-" style="text;strokeColor=none;fillColor=none;align=left;verticalAlign=top;spacingLeft=4;spacingRight=4;overflow=hidden;rotatable=0;points=[[0,0.5],[1,0.5]];portConstraint=eastwest;" parent="ByDJQVCLJqGfF-_jV3qt-88" vertex="1">
          <mxGeometry y="26" width="160" height="26" as="geometry" />
        </mxCell>
        <mxCell id="ByDJQVCLJqGfF-_jV3qt-90" value="" style="line;strokeWidth=1;fillColor=none;align=left;verticalAlign=middle;spacingTop=-1;spacingLeft=3;spacingRight=3;rotatable=0;labelPosition=right;points=[];portConstraint=eastwest;" parent="ByDJQVCLJqGfF-_jV3qt-88" vertex="1">
          <mxGeometry y="52" width="160" height="8" as="geometry" />
        </mxCell>
        <mxCell id="ByDJQVCLJqGfF-_jV3qt-91" value="-" style="text;strokeColor=none;fillColor=none;align=left;verticalAlign=top;spacingLeft=4;spacingRight=4;overflow=hidden;rotatable=0;points=[[0,0.5],[1,0.5]];portConstraint=eastwest;" parent="ByDJQVCLJqGfF-_jV3qt-88" vertex="1">
          <mxGeometry y="60" width="160" height="26" as="geometry" />
        </mxCell>
        <mxCell id="ByDJQVCLJqGfF-_jV3qt-93" value="Manager" style="swimlane;fontStyle=1;align=center;verticalAlign=top;childLayout=stackLayout;horizontal=1;startSize=26;horizontalStack=0;resizeParent=1;resizeParentMax=0;resizeLast=0;collapsible=1;marginBottom=0;" parent="1" vertex="1">
          <mxGeometry x="425" y="-132" width="160" height="86" as="geometry" />
        </mxCell>
        <mxCell id="ByDJQVCLJqGfF-_jV3qt-94" value="- role : String" style="text;strokeColor=none;fillColor=none;align=left;verticalAlign=top;spacingLeft=4;spacingRight=4;overflow=hidden;rotatable=0;points=[[0,0.5],[1,0.5]];portConstraint=eastwest;" parent="ByDJQVCLJqGfF-_jV3qt-93" vertex="1">
          <mxGeometry y="26" width="160" height="26" as="geometry" />
        </mxCell>
        <mxCell id="ByDJQVCLJqGfF-_jV3qt-95" value="" style="line;strokeWidth=1;fillColor=none;align=left;verticalAlign=middle;spacingTop=-1;spacingLeft=3;spacingRight=3;rotatable=0;labelPosition=right;points=[];portConstraint=eastwest;" parent="ByDJQVCLJqGfF-_jV3qt-93" vertex="1">
          <mxGeometry y="52" width="160" height="8" as="geometry" />
        </mxCell>
        <mxCell id="ByDJQVCLJqGfF-_jV3qt-96" value="-" style="text;strokeColor=none;fillColor=none;align=left;verticalAlign=top;spacingLeft=4;spacingRight=4;overflow=hidden;rotatable=0;points=[[0,0.5],[1,0.5]];portConstraint=eastwest;" parent="ByDJQVCLJqGfF-_jV3qt-93" vertex="1">
          <mxGeometry y="60" width="160" height="26" as="geometry" />
        </mxCell>
        <mxCell id="ByDJQVCLJqGfF-_jV3qt-106" value="Sandwich" style="swimlane;fontStyle=1;align=center;verticalAlign=top;childLayout=stackLayout;horizontal=1;startSize=26;horizontalStack=0;resizeParent=1;resizeParentMax=0;resizeLast=0;collapsible=1;marginBottom=0;" parent="1" vertex="1">
          <mxGeometry x="1050" y="-236" width="220" height="216" as="geometry" />
        </mxCell>
        <mxCell id="ByDJQVCLJqGfF-_jV3qt-109" value="- 가격 : float" style="text;strokeColor=none;fillColor=none;align=left;verticalAlign=top;spacingLeft=4;spacingRight=4;overflow=hidden;rotatable=0;points=[[0,0.5],[1,0.5]];portConstraint=eastwest;" parent="ByDJQVCLJqGfF-_jV3qt-106" vertex="1">
          <mxGeometry y="26" width="220" height="26" as="geometry" />
        </mxCell>
        <mxCell id="ByDJQVCLJqGfF-_jV3qt-111" value="- size : String" style="text;strokeColor=none;fillColor=none;align=left;verticalAlign=top;spacingLeft=4;spacingRight=4;overflow=hidden;rotatable=0;points=[[0,0.5],[1,0.5]];portConstraint=eastwest;" parent="ByDJQVCLJqGfF-_jV3qt-106" vertex="1">
          <mxGeometry y="52" width="220" height="26" as="geometry" />
        </mxCell>
        <mxCell id="ByDJQVCLJqGfF-_jV3qt-112" value="- 빵 : String" style="text;strokeColor=none;fillColor=none;align=left;verticalAlign=top;spacingLeft=4;spacingRight=4;overflow=hidden;rotatable=0;points=[[0,0.5],[1,0.5]];portConstraint=eastwest;" parent="ByDJQVCLJqGfF-_jV3qt-106" vertex="1">
          <mxGeometry y="78" width="220" height="26" as="geometry" />
        </mxCell>
        <mxCell id="ByDJQVCLJqGfF-_jV3qt-113" value="-  치즈 : String" style="text;strokeColor=none;fillColor=none;align=left;verticalAlign=top;spacingLeft=4;spacingRight=4;overflow=hidden;rotatable=0;points=[[0,0.5],[1,0.5]];portConstraint=eastwest;" parent="ByDJQVCLJqGfF-_jV3qt-106" vertex="1">
          <mxGeometry y="104" width="220" height="26" as="geometry" />
        </mxCell>
        <mxCell id="ByDJQVCLJqGfF-_jV3qt-107" value="- 토핑리스트 : ArrayList&lt;Topping&gt;" style="text;strokeColor=none;fillColor=none;align=left;verticalAlign=top;spacingLeft=4;spacingRight=4;overflow=hidden;rotatable=0;points=[[0,0.5],[1,0.5]];portConstraint=eastwest;" parent="ByDJQVCLJqGfF-_jV3qt-106" vertex="1">
          <mxGeometry y="130" width="220" height="26" as="geometry" />
        </mxCell>
        <mxCell id="ByDJQVCLJqGfF-_jV3qt-114" value="- 소스리스트 : ArrayList&lt;Sauce&gt;" style="text;strokeColor=none;fillColor=none;align=left;verticalAlign=top;spacingLeft=4;spacingRight=4;overflow=hidden;rotatable=0;points=[[0,0.5],[1,0.5]];portConstraint=eastwest;" parent="ByDJQVCLJqGfF-_jV3qt-106" vertex="1">
          <mxGeometry y="156" width="220" height="26" as="geometry" />
        </mxCell>
        <mxCell id="ByDJQVCLJqGfF-_jV3qt-108" value="" style="line;strokeWidth=1;fillColor=none;align=left;verticalAlign=middle;spacingTop=-1;spacingLeft=3;spacingRight=3;rotatable=0;labelPosition=right;points=[];portConstraint=eastwest;" parent="ByDJQVCLJqGfF-_jV3qt-106" vertex="1">
          <mxGeometry y="182" width="220" height="8" as="geometry" />
        </mxCell>
        <mxCell id="ByDJQVCLJqGfF-_jV3qt-110" value="+ calculateCost() : void" style="text;strokeColor=none;fillColor=none;align=left;verticalAlign=top;spacingLeft=4;spacingRight=4;overflow=hidden;rotatable=0;points=[[0,0.5],[1,0.5]];portConstraint=eastwest;" parent="ByDJQVCLJqGfF-_jV3qt-106" vertex="1">
          <mxGeometry y="190" width="220" height="26" as="geometry" />
        </mxCell>
        <mxCell id="ByDJQVCLJqGfF-_jV3qt-116" value="1" style="text;html=1;strokeColor=none;fillColor=none;align=center;verticalAlign=middle;whiteSpace=wrap;rounded=0;" parent="1" vertex="1">
          <mxGeometry x="840" width="40" height="20" as="geometry" />
        </mxCell>
        <mxCell id="ByDJQVCLJqGfF-_jV3qt-117" value="*" style="text;html=1;strokeColor=none;fillColor=none;align=center;verticalAlign=middle;whiteSpace=wrap;rounded=0;" parent="1" vertex="1">
          <mxGeometry x="1010" y="-118" width="40" height="20" as="geometry" />
        </mxCell>
        <mxCell id="ByDJQVCLJqGfF-_jV3qt-118" value="Salad" style="swimlane;fontStyle=1;align=center;verticalAlign=top;childLayout=stackLayout;horizontal=1;startSize=26;horizontalStack=0;resizeParent=1;resizeParentMax=0;resizeLast=0;collapsible=1;marginBottom=0;" parent="1" vertex="1">
          <mxGeometry x="1050" width="210" height="164" as="geometry" />
        </mxCell>
        <mxCell id="ByDJQVCLJqGfF-_jV3qt-119" value="- 가격 : float" style="text;strokeColor=none;fillColor=none;align=left;verticalAlign=top;spacingLeft=4;spacingRight=4;overflow=hidden;rotatable=0;points=[[0,0.5],[1,0.5]];portConstraint=eastwest;" parent="ByDJQVCLJqGfF-_jV3qt-118" vertex="1">
          <mxGeometry y="26" width="210" height="26" as="geometry" />
        </mxCell>
        <mxCell id="ByDJQVCLJqGfF-_jV3qt-124" value="- 치즈 : String" style="text;strokeColor=none;fillColor=none;align=left;verticalAlign=top;spacingLeft=4;spacingRight=4;overflow=hidden;rotatable=0;points=[[0,0.5],[1,0.5]];portConstraint=eastwest;" parent="ByDJQVCLJqGfF-_jV3qt-118" vertex="1">
          <mxGeometry y="52" width="210" height="26" as="geometry" />
        </mxCell>
        <mxCell id="ByDJQVCLJqGfF-_jV3qt-123" value="- 토핑리스트 : ArrayList&lt;Topping&gt;" style="text;strokeColor=none;fillColor=none;align=left;verticalAlign=top;spacingLeft=4;spacingRight=4;overflow=hidden;rotatable=0;points=[[0,0.5],[1,0.5]];portConstraint=eastwest;" parent="ByDJQVCLJqGfF-_jV3qt-118" vertex="1">
          <mxGeometry y="78" width="210" height="26" as="geometry" />
        </mxCell>
        <mxCell id="ByDJQVCLJqGfF-_jV3qt-122" value="- 소스 리스트 : ArrayList&lt;Sauce&gt; " style="text;strokeColor=none;fillColor=none;align=left;verticalAlign=top;spacingLeft=4;spacingRight=4;overflow=hidden;rotatable=0;points=[[0,0.5],[1,0.5]];portConstraint=eastwest;" parent="ByDJQVCLJqGfF-_jV3qt-118" vertex="1">
          <mxGeometry y="104" width="210" height="26" as="geometry" />
        </mxCell>
        <mxCell id="ByDJQVCLJqGfF-_jV3qt-120" value="" style="line;strokeWidth=1;fillColor=none;align=left;verticalAlign=middle;spacingTop=-1;spacingLeft=3;spacingRight=3;rotatable=0;labelPosition=right;points=[];portConstraint=eastwest;" parent="ByDJQVCLJqGfF-_jV3qt-118" vertex="1">
          <mxGeometry y="130" width="210" height="8" as="geometry" />
        </mxCell>
        <mxCell id="ByDJQVCLJqGfF-_jV3qt-121" value="+ calculateCost() : void" style="text;strokeColor=none;fillColor=none;align=left;verticalAlign=top;spacingLeft=4;spacingRight=4;overflow=hidden;rotatable=0;points=[[0,0.5],[1,0.5]];portConstraint=eastwest;" parent="ByDJQVCLJqGfF-_jV3qt-118" vertex="1">
          <mxGeometry y="138" width="210" height="26" as="geometry" />
        </mxCell>
        <mxCell id="ByDJQVCLJqGfF-_jV3qt-126" value="Wrap" style="swimlane;fontStyle=1;align=center;verticalAlign=top;childLayout=stackLayout;horizontal=1;startSize=26;horizontalStack=0;resizeParent=1;resizeParentMax=0;resizeLast=0;collapsible=1;marginBottom=0;" parent="1" vertex="1">
          <mxGeometry x="1050" y="184" width="220" height="86" as="geometry" />
        </mxCell>
        <mxCell id="ByDJQVCLJqGfF-_jV3qt-127" value="- 가격 : float" style="text;strokeColor=none;fillColor=none;align=left;verticalAlign=top;spacingLeft=4;spacingRight=4;overflow=hidden;rotatable=0;points=[[0,0.5],[1,0.5]];portConstraint=eastwest;" parent="ByDJQVCLJqGfF-_jV3qt-126" vertex="1">
          <mxGeometry y="26" width="220" height="26" as="geometry" />
        </mxCell>
        <mxCell id="ByDJQVCLJqGfF-_jV3qt-128" value="" style="line;strokeWidth=1;fillColor=none;align=left;verticalAlign=middle;spacingTop=-1;spacingLeft=3;spacingRight=3;rotatable=0;labelPosition=right;points=[];portConstraint=eastwest;" parent="ByDJQVCLJqGfF-_jV3qt-126" vertex="1">
          <mxGeometry y="52" width="220" height="8" as="geometry" />
        </mxCell>
        <mxCell id="ByDJQVCLJqGfF-_jV3qt-129" value="-" style="text;strokeColor=none;fillColor=none;align=left;verticalAlign=top;spacingLeft=4;spacingRight=4;overflow=hidden;rotatable=0;points=[[0,0.5],[1,0.5]];portConstraint=eastwest;" parent="ByDJQVCLJqGfF-_jV3qt-126" vertex="1">
          <mxGeometry y="60" width="220" height="26" as="geometry" />
        </mxCell>
        <mxCell id="ByDJQVCLJqGfF-_jV3qt-131" value="메뉴 컨트롤러" style="swimlane;fontStyle=1;align=center;verticalAlign=top;childLayout=stackLayout;horizontal=1;startSize=26;horizontalStack=0;resizeParent=1;resizeParentMax=0;resizeLast=0;collapsible=1;marginBottom=0;" parent="1" vertex="1">
          <mxGeometry x="767" y="-236" width="160" height="86" as="geometry" />
        </mxCell>
        <mxCell id="ByDJQVCLJqGfF-_jV3qt-132" value="-" style="text;strokeColor=none;fillColor=none;align=left;verticalAlign=top;spacingLeft=4;spacingRight=4;overflow=hidden;rotatable=0;points=[[0,0.5],[1,0.5]];portConstraint=eastwest;" parent="ByDJQVCLJqGfF-_jV3qt-131" vertex="1">
          <mxGeometry y="26" width="160" height="26" as="geometry" />
        </mxCell>
        <mxCell id="ByDJQVCLJqGfF-_jV3qt-133" value="" style="line;strokeWidth=1;fillColor=none;align=left;verticalAlign=middle;spacingTop=-1;spacingLeft=3;spacingRight=3;rotatable=0;labelPosition=right;points=[];portConstraint=eastwest;" parent="ByDJQVCLJqGfF-_jV3qt-131" vertex="1">
          <mxGeometry y="52" width="160" height="8" as="geometry" />
        </mxCell>
        <mxCell id="ByDJQVCLJqGfF-_jV3qt-134" value="-" style="text;strokeColor=none;fillColor=none;align=left;verticalAlign=top;spacingLeft=4;spacingRight=4;overflow=hidden;rotatable=0;points=[[0,0.5],[1,0.5]];portConstraint=eastwest;" parent="ByDJQVCLJqGfF-_jV3qt-131" vertex="1">
          <mxGeometry y="60" width="160" height="26" as="geometry" />
        </mxCell>
        <mxCell id="ByDJQVCLJqGfF-_jV3qt-136" value="1" style="text;html=1;strokeColor=none;fillColor=none;align=center;verticalAlign=middle;whiteSpace=wrap;rounded=0;" parent="1" vertex="1">
          <mxGeometry x="810" y="-149" width="40" height="20" as="geometry" />
        </mxCell>
        <mxCell id="ByDJQVCLJqGfF-_jV3qt-137" value="1" style="text;html=1;strokeColor=none;fillColor=none;align=center;verticalAlign=middle;whiteSpace=wrap;rounded=0;" parent="1" vertex="1">
          <mxGeometry x="727" y="-2" width="40" height="20" as="geometry" />
        </mxCell>
        <mxCell id="ByDJQVCLJqGfF-_jV3qt-140" value="1" style="text;html=1;strokeColor=none;fillColor=none;align=center;verticalAlign=middle;whiteSpace=wrap;rounded=0;" parent="1" vertex="1">
          <mxGeometry x="950" y="58" width="40" height="20" as="geometry" />
        </mxCell>
        <mxCell id="ByDJQVCLJqGfF-_jV3qt-141" value="*" style="text;html=1;strokeColor=none;fillColor=none;align=center;verticalAlign=middle;whiteSpace=wrap;rounded=0;" parent="1" vertex="1">
          <mxGeometry x="1010" y="58" width="40" height="20" as="geometry" />
        </mxCell>
        <mxCell id="ByDJQVCLJqGfF-_jV3qt-142" value="MenuInfo" style="swimlane;fontStyle=1;align=center;verticalAlign=top;childLayout=stackLayout;horizontal=1;startSize=26;horizontalStack=0;resizeParent=1;resizeParentMax=0;resizeLast=0;collapsible=1;marginBottom=0;" parent="1" vertex="1">
          <mxGeometry x="860" y="410" width="160" height="112" as="geometry" />
        </mxCell>
        <mxCell id="ByDJQVCLJqGfF-_jV3qt-143" value="- name : String" style="text;strokeColor=none;fillColor=none;align=left;verticalAlign=top;spacingLeft=4;spacingRight=4;overflow=hidden;rotatable=0;points=[[0,0.5],[1,0.5]];portConstraint=eastwest;" parent="ByDJQVCLJqGfF-_jV3qt-142" vertex="1">
          <mxGeometry y="26" width="160" height="26" as="geometry" />
        </mxCell>
        <mxCell id="ByDJQVCLJqGfF-_jV3qt-146" value="- price : float" style="text;strokeColor=none;fillColor=none;align=left;verticalAlign=top;spacingLeft=4;spacingRight=4;overflow=hidden;rotatable=0;points=[[0,0.5],[1,0.5]];portConstraint=eastwest;" parent="ByDJQVCLJqGfF-_jV3qt-142" vertex="1">
          <mxGeometry y="52" width="160" height="26" as="geometry" />
        </mxCell>
        <mxCell id="ByDJQVCLJqGfF-_jV3qt-144" value="" style="line;strokeWidth=1;fillColor=none;align=left;verticalAlign=middle;spacingTop=-1;spacingLeft=3;spacingRight=3;rotatable=0;labelPosition=right;points=[];portConstraint=eastwest;" parent="ByDJQVCLJqGfF-_jV3qt-142" vertex="1">
          <mxGeometry y="78" width="160" height="8" as="geometry" />
        </mxCell>
        <mxCell id="ByDJQVCLJqGfF-_jV3qt-145" value="+" style="text;strokeColor=none;fillColor=none;align=left;verticalAlign=top;spacingLeft=4;spacingRight=4;overflow=hidden;rotatable=0;points=[[0,0.5],[1,0.5]];portConstraint=eastwest;" parent="ByDJQVCLJqGfF-_jV3qt-142" vertex="1">
          <mxGeometry y="86" width="160" height="26" as="geometry" />
        </mxCell>
        <mxCell id="ByDJQVCLJqGfF-_jV3qt-148" value="1" style="text;html=1;strokeColor=none;fillColor=none;align=center;verticalAlign=middle;whiteSpace=wrap;rounded=0;" parent="1" vertex="1">
          <mxGeometry x="750" y="346" width="40" height="20" as="geometry" />
        </mxCell>
        <mxCell id="ByDJQVCLJqGfF-_jV3qt-149" value="1" style="text;html=1;strokeColor=none;fillColor=none;align=center;verticalAlign=middle;whiteSpace=wrap;rounded=0;" parent="1" vertex="1">
          <mxGeometry x="880" y="388" width="40" height="20" as="geometry" />
        </mxCell>
        <mxCell id="ByDJQVCLJqGfF-_jV3qt-150" value="Drink" style="swimlane;fontStyle=1;align=center;verticalAlign=top;childLayout=stackLayout;horizontal=1;startSize=26;horizontalStack=0;resizeParent=1;resizeParentMax=0;resizeLast=0;collapsible=1;marginBottom=0;" parent="1" vertex="1">
          <mxGeometry x="1050" y="296" width="160" height="112" as="geometry" />
        </mxCell>
        <mxCell id="ByDJQVCLJqGfF-_jV3qt-151" value="- size : String" style="text;strokeColor=none;fillColor=none;align=left;verticalAlign=top;spacingLeft=4;spacingRight=4;overflow=hidden;rotatable=0;points=[[0,0.5],[1,0.5]];portConstraint=eastwest;" parent="ByDJQVCLJqGfF-_jV3qt-150" vertex="1">
          <mxGeometry y="26" width="160" height="26" as="geometry" />
        </mxCell>
        <mxCell id="ByDJQVCLJqGfF-_jV3qt-154" value="- 가격 : float" style="text;strokeColor=none;fillColor=none;align=left;verticalAlign=top;spacingLeft=4;spacingRight=4;overflow=hidden;rotatable=0;points=[[0,0.5],[1,0.5]];portConstraint=eastwest;" parent="ByDJQVCLJqGfF-_jV3qt-150" vertex="1">
          <mxGeometry y="52" width="160" height="26" as="geometry" />
        </mxCell>
        <mxCell id="ByDJQVCLJqGfF-_jV3qt-152" value="" style="line;strokeWidth=1;fillColor=none;align=left;verticalAlign=middle;spacingTop=-1;spacingLeft=3;spacingRight=3;rotatable=0;labelPosition=right;points=[];portConstraint=eastwest;" parent="ByDJQVCLJqGfF-_jV3qt-150" vertex="1">
          <mxGeometry y="78" width="160" height="8" as="geometry" />
        </mxCell>
        <mxCell id="ByDJQVCLJqGfF-_jV3qt-153" value="calculateCost() : void" style="text;strokeColor=none;fillColor=none;align=left;verticalAlign=top;spacingLeft=4;spacingRight=4;overflow=hidden;rotatable=0;points=[[0,0.5],[1,0.5]];portConstraint=eastwest;" parent="ByDJQVCLJqGfF-_jV3qt-150" vertex="1">
          <mxGeometry y="86" width="160" height="26" as="geometry" />
        </mxCell>
        <mxCell id="ByDJQVCLJqGfF-_jV3qt-155" value="Side" style="swimlane;fontStyle=1;align=center;verticalAlign=top;childLayout=stackLayout;horizontal=1;startSize=26;horizontalStack=0;resizeParent=1;resizeParentMax=0;resizeLast=0;collapsible=1;marginBottom=0;" parent="1" vertex="1">
          <mxGeometry x="1050" y="432" width="160" height="86" as="geometry" />
        </mxCell>
        <mxCell id="ByDJQVCLJqGfF-_jV3qt-156" value="- 가격 : float" style="text;strokeColor=none;fillColor=none;align=left;verticalAlign=top;spacingLeft=4;spacingRight=4;overflow=hidden;rotatable=0;points=[[0,0.5],[1,0.5]];portConstraint=eastwest;" parent="ByDJQVCLJqGfF-_jV3qt-155" vertex="1">
          <mxGeometry y="26" width="160" height="26" as="geometry" />
        </mxCell>
        <mxCell id="ByDJQVCLJqGfF-_jV3qt-157" value="" style="line;strokeWidth=1;fillColor=none;align=left;verticalAlign=middle;spacingTop=-1;spacingLeft=3;spacingRight=3;rotatable=0;labelPosition=right;points=[];portConstraint=eastwest;" parent="ByDJQVCLJqGfF-_jV3qt-155" vertex="1">
          <mxGeometry y="52" width="160" height="8" as="geometry" />
        </mxCell>
        <mxCell id="ByDJQVCLJqGfF-_jV3qt-158" value="+" style="text;strokeColor=none;fillColor=none;align=left;verticalAlign=top;spacingLeft=4;spacingRight=4;overflow=hidden;rotatable=0;points=[[0,0.5],[1,0.5]];portConstraint=eastwest;" parent="ByDJQVCLJqGfF-_jV3qt-155" vertex="1">
          <mxGeometry y="60" width="160" height="26" as="geometry" />
        </mxCell>
        <mxCell id="ByDJQVCLJqGfF-_jV3qt-162" value="*" style="text;html=1;strokeColor=none;fillColor=none;align=center;verticalAlign=middle;whiteSpace=wrap;rounded=0;" parent="1" vertex="1">
          <mxGeometry x="1020" y="476" width="40" height="20" as="geometry" />
        </mxCell>
        <mxCell id="ByDJQVCLJqGfF-_jV3qt-163" value="1" style="text;html=1;strokeColor=none;fillColor=none;align=center;verticalAlign=middle;whiteSpace=wrap;rounded=0;" parent="1" vertex="1">
          <mxGeometry x="940" y="296" width="40" height="20" as="geometry" />
        </mxCell>
        <mxCell id="ByDJQVCLJqGfF-_jV3qt-164" value="*" style="text;html=1;strokeColor=none;fillColor=none;align=center;verticalAlign=middle;whiteSpace=wrap;rounded=0;" parent="1" vertex="1">
          <mxGeometry x="1020" y="210" width="40" height="20" as="geometry" />
        </mxCell>
        <mxCell id="ByDJQVCLJqGfF-_jV3qt-165" value="1" style="text;html=1;strokeColor=none;fillColor=none;align=center;verticalAlign=middle;whiteSpace=wrap;rounded=0;" parent="1" vertex="1">
          <mxGeometry x="940" y="184" width="40" height="20" as="geometry" />
        </mxCell>
        <mxCell id="ByDJQVCLJqGfF-_jV3qt-166" value="*" style="text;html=1;strokeColor=none;fillColor=none;align=center;verticalAlign=middle;whiteSpace=wrap;rounded=0;" parent="1" vertex="1">
          <mxGeometry x="1020" y="326" width="40" height="20" as="geometry" />
        </mxCell>
        <mxCell id="ByDJQVCLJqGfF-_jV3qt-167" value="1" style="text;html=1;strokeColor=none;fillColor=none;align=center;verticalAlign=middle;whiteSpace=wrap;rounded=0;" parent="1" vertex="1">
          <mxGeometry x="910" y="346" width="40" height="20" as="geometry" />
        </mxCell>
        <mxCell id="ByDJQVCLJqGfF-_jV3qt-168" value="Bread" style="swimlane;fontStyle=1;align=center;verticalAlign=top;childLayout=stackLayout;horizontal=1;startSize=26;horizontalStack=0;resizeParent=1;resizeParentMax=0;resizeLast=0;collapsible=1;marginBottom=0;" parent="1" vertex="1">
          <mxGeometry x="1380" y="-184" width="160" height="112" as="geometry" />
        </mxCell>
        <mxCell id="ByDJQVCLJqGfF-_jV3qt-169" value="- size : String" style="text;strokeColor=none;fillColor=none;align=left;verticalAlign=top;spacingLeft=4;spacingRight=4;overflow=hidden;rotatable=0;points=[[0,0.5],[1,0.5]];portConstraint=eastwest;" parent="ByDJQVCLJqGfF-_jV3qt-168" vertex="1">
          <mxGeometry y="26" width="160" height="26" as="geometry" />
        </mxCell>
        <mxCell id="ByDJQVCLJqGfF-_jV3qt-172" value="- name : String" style="text;strokeColor=none;fillColor=none;align=left;verticalAlign=top;spacingLeft=4;spacingRight=4;overflow=hidden;rotatable=0;points=[[0,0.5],[1,0.5]];portConstraint=eastwest;" parent="ByDJQVCLJqGfF-_jV3qt-168" vertex="1">
          <mxGeometry y="52" width="160" height="26" as="geometry" />
        </mxCell>
        <mxCell id="ByDJQVCLJqGfF-_jV3qt-170" value="" style="line;strokeWidth=1;fillColor=none;align=left;verticalAlign=middle;spacingTop=-1;spacingLeft=3;spacingRight=3;rotatable=0;labelPosition=right;points=[];portConstraint=eastwest;" parent="ByDJQVCLJqGfF-_jV3qt-168" vertex="1">
          <mxGeometry y="78" width="160" height="8" as="geometry" />
        </mxCell>
        <mxCell id="ByDJQVCLJqGfF-_jV3qt-171" value="+" style="text;strokeColor=none;fillColor=none;align=left;verticalAlign=top;spacingLeft=4;spacingRight=4;overflow=hidden;rotatable=0;points=[[0,0.5],[1,0.5]];portConstraint=eastwest;" parent="ByDJQVCLJqGfF-_jV3qt-168" vertex="1">
          <mxGeometry y="86" width="160" height="26" as="geometry" />
        </mxCell>
        <mxCell id="ByDJQVCLJqGfF-_jV3qt-173" value="Cheese" style="swimlane;fontStyle=1;align=center;verticalAlign=top;childLayout=stackLayout;horizontal=1;startSize=26;horizontalStack=0;resizeParent=1;resizeParentMax=0;resizeLast=0;collapsible=1;marginBottom=0;" parent="1" vertex="1">
          <mxGeometry x="1380" y="-35" width="160" height="86" as="geometry" />
        </mxCell>
        <mxCell id="ByDJQVCLJqGfF-_jV3qt-174" value="- name : String" style="text;strokeColor=none;fillColor=none;align=left;verticalAlign=top;spacingLeft=4;spacingRight=4;overflow=hidden;rotatable=0;points=[[0,0.5],[1,0.5]];portConstraint=eastwest;" parent="ByDJQVCLJqGfF-_jV3qt-173" vertex="1">
          <mxGeometry y="26" width="160" height="26" as="geometry" />
        </mxCell>
        <mxCell id="ByDJQVCLJqGfF-_jV3qt-175" value="" style="line;strokeWidth=1;fillColor=none;align=left;verticalAlign=middle;spacingTop=-1;spacingLeft=3;spacingRight=3;rotatable=0;labelPosition=right;points=[];portConstraint=eastwest;" parent="ByDJQVCLJqGfF-_jV3qt-173" vertex="1">
          <mxGeometry y="52" width="160" height="8" as="geometry" />
        </mxCell>
        <mxCell id="ByDJQVCLJqGfF-_jV3qt-176" value="+" style="text;strokeColor=none;fillColor=none;align=left;verticalAlign=top;spacingLeft=4;spacingRight=4;overflow=hidden;rotatable=0;points=[[0,0.5],[1,0.5]];portConstraint=eastwest;" parent="ByDJQVCLJqGfF-_jV3qt-173" vertex="1">
          <mxGeometry y="60" width="160" height="26" as="geometry" />
        </mxCell>
        <mxCell id="ByDJQVCLJqGfF-_jV3qt-177" value="Topping" style="swimlane;fontStyle=1;align=center;verticalAlign=top;childLayout=stackLayout;horizontal=1;startSize=26;horizontalStack=0;resizeParent=1;resizeParentMax=0;resizeLast=0;collapsible=1;marginBottom=0;" parent="1" vertex="1">
          <mxGeometry x="1380" y="80" width="160" height="86" as="geometry" />
        </mxCell>
        <mxCell id="ByDJQVCLJqGfF-_jV3qt-178" value="- name : String" style="text;strokeColor=none;fillColor=none;align=left;verticalAlign=top;spacingLeft=4;spacingRight=4;overflow=hidden;rotatable=0;points=[[0,0.5],[1,0.5]];portConstraint=eastwest;" parent="ByDJQVCLJqGfF-_jV3qt-177" vertex="1">
          <mxGeometry y="26" width="160" height="26" as="geometry" />
        </mxCell>
        <mxCell id="ByDJQVCLJqGfF-_jV3qt-179" value="" style="line;strokeWidth=1;fillColor=none;align=left;verticalAlign=middle;spacingTop=-1;spacingLeft=3;spacingRight=3;rotatable=0;labelPosition=right;points=[];portConstraint=eastwest;" parent="ByDJQVCLJqGfF-_jV3qt-177" vertex="1">
          <mxGeometry y="52" width="160" height="8" as="geometry" />
        </mxCell>
        <mxCell id="ByDJQVCLJqGfF-_jV3qt-180" value="+" style="text;strokeColor=none;fillColor=none;align=left;verticalAlign=top;spacingLeft=4;spacingRight=4;overflow=hidden;rotatable=0;points=[[0,0.5],[1,0.5]];portConstraint=eastwest;" parent="ByDJQVCLJqGfF-_jV3qt-177" vertex="1">
          <mxGeometry y="60" width="160" height="26" as="geometry" />
        </mxCell>
        <mxCell id="ByDJQVCLJqGfF-_jV3qt-184" value="Sauce" style="swimlane;fontStyle=1;align=center;verticalAlign=top;childLayout=stackLayout;horizontal=1;startSize=26;horizontalStack=0;resizeParent=1;resizeParentMax=0;resizeLast=0;collapsible=1;marginBottom=0;" parent="1" vertex="1">
          <mxGeometry x="1380" y="190" width="160" height="86" as="geometry" />
        </mxCell>
        <mxCell id="ByDJQVCLJqGfF-_jV3qt-185" value="- name : String" style="text;strokeColor=none;fillColor=none;align=left;verticalAlign=top;spacingLeft=4;spacingRight=4;overflow=hidden;rotatable=0;points=[[0,0.5],[1,0.5]];portConstraint=eastwest;" parent="ByDJQVCLJqGfF-_jV3qt-184" vertex="1">
          <mxGeometry y="26" width="160" height="26" as="geometry" />
        </mxCell>
        <mxCell id="ByDJQVCLJqGfF-_jV3qt-186" value="" style="line;strokeWidth=1;fillColor=none;align=left;verticalAlign=middle;spacingTop=-1;spacingLeft=3;spacingRight=3;rotatable=0;labelPosition=right;points=[];portConstraint=eastwest;" parent="ByDJQVCLJqGfF-_jV3qt-184" vertex="1">
          <mxGeometry y="52" width="160" height="8" as="geometry" />
        </mxCell>
        <mxCell id="ByDJQVCLJqGfF-_jV3qt-187" value="+" style="text;strokeColor=none;fillColor=none;align=left;verticalAlign=top;spacingLeft=4;spacingRight=4;overflow=hidden;rotatable=0;points=[[0,0.5],[1,0.5]];portConstraint=eastwest;" parent="ByDJQVCLJqGfF-_jV3qt-184" vertex="1">
          <mxGeometry y="60" width="160" height="26" as="geometry" />
        </mxCell>
        <mxCell id="ByDJQVCLJqGfF-_jV3qt-213" value="Customer" style="swimlane;fontStyle=1;align=center;verticalAlign=top;childLayout=stackLayout;horizontal=1;startSize=26;horizontalStack=0;resizeParent=1;resizeParentMax=0;resizeLast=0;collapsible=1;marginBottom=0;" parent="1" vertex="1">
          <mxGeometry x="240" y="-132" width="160" height="86" as="geometry" />
        </mxCell>
        <mxCell id="ByDJQVCLJqGfF-_jV3qt-214" value="- role : String" style="text;strokeColor=none;fillColor=none;align=left;verticalAlign=top;spacingLeft=4;spacingRight=4;overflow=hidden;rotatable=0;points=[[0,0.5],[1,0.5]];portConstraint=eastwest;" parent="ByDJQVCLJqGfF-_jV3qt-213" vertex="1">
          <mxGeometry y="26" width="160" height="26" as="geometry" />
        </mxCell>
        <mxCell id="ByDJQVCLJqGfF-_jV3qt-215" value="" style="line;strokeWidth=1;fillColor=none;align=left;verticalAlign=middle;spacingTop=-1;spacingLeft=3;spacingRight=3;rotatable=0;labelPosition=right;points=[];portConstraint=eastwest;" parent="ByDJQVCLJqGfF-_jV3qt-213" vertex="1">
          <mxGeometry y="52" width="160" height="8" as="geometry" />
        </mxCell>
        <mxCell id="ByDJQVCLJqGfF-_jV3qt-216" value="+ Order()" style="text;strokeColor=none;fillColor=none;align=left;verticalAlign=top;spacingLeft=4;spacingRight=4;overflow=hidden;rotatable=0;points=[[0,0.5],[1,0.5]];portConstraint=eastwest;" parent="ByDJQVCLJqGfF-_jV3qt-213" vertex="1">
          <mxGeometry y="60" width="160" height="26" as="geometry" />
        </mxCell>
        <mxCell id="ByDJQVCLJqGfF-_jV3qt-217" value="Participant" style="swimlane;fontStyle=1;align=center;verticalAlign=top;childLayout=stackLayout;horizontal=1;startSize=26;horizontalStack=0;resizeParent=1;resizeParentMax=0;resizeLast=0;collapsible=1;marginBottom=0;" parent="1" vertex="1">
          <mxGeometry x="334" y="-290" width="160" height="86" as="geometry" />
        </mxCell>
        <mxCell id="ByDJQVCLJqGfF-_jV3qt-218" value="-" style="text;strokeColor=none;fillColor=none;align=left;verticalAlign=top;spacingLeft=4;spacingRight=4;overflow=hidden;rotatable=0;points=[[0,0.5],[1,0.5]];portConstraint=eastwest;" parent="ByDJQVCLJqGfF-_jV3qt-217" vertex="1">
          <mxGeometry y="26" width="160" height="26" as="geometry" />
        </mxCell>
        <mxCell id="ByDJQVCLJqGfF-_jV3qt-219" value="" style="line;strokeWidth=1;fillColor=none;align=left;verticalAlign=middle;spacingTop=-1;spacingLeft=3;spacingRight=3;rotatable=0;labelPosition=right;points=[];portConstraint=eastwest;" parent="ByDJQVCLJqGfF-_jV3qt-217" vertex="1">
          <mxGeometry y="52" width="160" height="8" as="geometry" />
        </mxCell>
        <mxCell id="ByDJQVCLJqGfF-_jV3qt-220" value="-" style="text;strokeColor=none;fillColor=none;align=left;verticalAlign=top;spacingLeft=4;spacingRight=4;overflow=hidden;rotatable=0;points=[[0,0.5],[1,0.5]];portConstraint=eastwest;" parent="ByDJQVCLJqGfF-_jV3qt-217" vertex="1">
          <mxGeometry y="60" width="160" height="26" as="geometry" />
        </mxCell>
        <mxCell id="ByDJQVCLJqGfF-_jV3qt-221" value="" style="endArrow=block;endSize=16;endFill=0;html=1;exitX=0.5;exitY=0;exitDx=0;exitDy=0;entryX=0.431;entryY=1.192;entryDx=0;entryDy=0;entryPerimeter=0;" parent="1" source="ByDJQVCLJqGfF-_jV3qt-213" target="ByDJQVCLJqGfF-_jV3qt-220" edge="1">
          <mxGeometry x="-1" y="174" width="160" relative="1" as="geometry">
            <mxPoint x="280" y="-170" as="sourcePoint" />
            <mxPoint x="440" y="-170" as="targetPoint" />
            <Array as="points">
              <mxPoint x="320" y="-160" />
              <mxPoint x="403" y="-160" />
            </Array>
            <mxPoint x="-61" y="97" as="offset" />
          </mxGeometry>
        </mxCell>
        <mxCell id="ByDJQVCLJqGfF-_jV3qt-222" value="" style="endArrow=block;endSize=16;endFill=0;html=1;exitX=0.55;exitY=-0.023;exitDx=0;exitDy=0;exitPerimeter=0;entryX=0.6;entryY=1.154;entryDx=0;entryDy=0;entryPerimeter=0;" parent="1" source="ByDJQVCLJqGfF-_jV3qt-93" target="ByDJQVCLJqGfF-_jV3qt-220" edge="1">
          <mxGeometry x="-1" y="-81" width="160" relative="1" as="geometry">
            <mxPoint x="490" y="-170" as="sourcePoint" />
            <mxPoint x="650" y="-170" as="targetPoint" />
            <Array as="points">
              <mxPoint x="513" y="-160" />
              <mxPoint x="430" y="-160" />
            </Array>
            <mxPoint x="23" y="11" as="offset" />
          </mxGeometry>
        </mxCell>
        <mxCell id="ByDJQVCLJqGfF-_jV3qt-227" value="매출 현황 컨트롤러" style="swimlane;fontStyle=1;align=center;verticalAlign=top;childLayout=stackLayout;horizontal=1;startSize=26;horizontalStack=0;resizeParent=1;resizeParentMax=0;resizeLast=0;collapsible=1;marginBottom=0;" parent="1" vertex="1">
          <mxGeometry x="570" y="-236" width="175" height="86" as="geometry" />
        </mxCell>
        <mxCell id="ByDJQVCLJqGfF-_jV3qt-228" value="- 판매 내역 : ArrayList&lt;Order&gt;" style="text;strokeColor=none;fillColor=none;align=left;verticalAlign=top;spacingLeft=4;spacingRight=4;overflow=hidden;rotatable=0;points=[[0,0.5],[1,0.5]];portConstraint=eastwest;" parent="ByDJQVCLJqGfF-_jV3qt-227" vertex="1">
          <mxGeometry y="26" width="175" height="26" as="geometry" />
        </mxCell>
        <mxCell id="ByDJQVCLJqGfF-_jV3qt-229" value="" style="line;strokeWidth=1;fillColor=none;align=left;verticalAlign=middle;spacingTop=-1;spacingLeft=3;spacingRight=3;rotatable=0;labelPosition=right;points=[];portConstraint=eastwest;" parent="ByDJQVCLJqGfF-_jV3qt-227" vertex="1">
          <mxGeometry y="52" width="175" height="8" as="geometry" />
        </mxCell>
        <mxCell id="ByDJQVCLJqGfF-_jV3qt-230" value="print() : void" style="text;strokeColor=none;fillColor=none;align=left;verticalAlign=top;spacingLeft=4;spacingRight=4;overflow=hidden;rotatable=0;points=[[0,0.5],[1,0.5]];portConstraint=eastwest;" parent="ByDJQVCLJqGfF-_jV3qt-227" vertex="1">
          <mxGeometry y="60" width="175" height="26" as="geometry" />
        </mxCell>
        <mxCell id="ByDJQVCLJqGfF-_jV3qt-232" value="*" style="text;html=1;strokeColor=none;fillColor=none;align=center;verticalAlign=middle;whiteSpace=wrap;rounded=0;" parent="1" vertex="1">
          <mxGeometry x="550" y="244" width="40" height="20" as="geometry" />
        </mxCell>
        <mxCell id="ByDJQVCLJqGfF-_jV3qt-236" value="1" style="text;html=1;strokeColor=none;fillColor=none;align=center;verticalAlign=middle;whiteSpace=wrap;rounded=0;" parent="1" vertex="1">
          <mxGeometry x="637.5" y="-149" width="40" height="20" as="geometry" />
        </mxCell>
        <mxCell id="X9svfKhv0r-nfiWAxkPa-10" value="1" style="text;html=1;strokeColor=none;fillColor=none;align=center;verticalAlign=middle;whiteSpace=wrap;rounded=0;" vertex="1" parent="1">
          <mxGeometry x="580" y="580" width="40" height="20" as="geometry" />
        </mxCell>
        <mxCell id="X9svfKhv0r-nfiWAxkPa-11" value="" style="endArrow=none;html=1;edgeStyle=orthogonalEdgeStyle;exitX=0.5;exitY=0;exitDx=0;exitDy=0;entryX=0.5;entryY=1.077;entryDx=0;entryDy=0;entryPerimeter=0;" edge="1" parent="1" source="ByDJQVCLJqGfF-_jV3qt-1" target="ByDJQVCLJqGfF-_jV3qt-96">
          <mxGeometry relative="1" as="geometry">
            <mxPoint x="174" y="105" as="sourcePoint" />
            <mxPoint x="334" y="105" as="targetPoint" />
            <Array as="points">
              <mxPoint x="80" y="150" />
              <mxPoint x="110" y="150" />
              <mxPoint x="110" y="100" />
              <mxPoint x="505" y="100" />
            </Array>
          </mxGeometry>
        </mxCell>
        <mxCell id="X9svfKhv0r-nfiWAxkPa-14" value="" style="endArrow=none;html=1;edgeStyle=orthogonalEdgeStyle;entryX=0.478;entryY=1.115;entryDx=0;entryDy=0;entryPerimeter=0;exitX=0.25;exitY=0;exitDx=0;exitDy=0;" edge="1" parent="1" source="ByDJQVCLJqGfF-_jV3qt-1" target="ByDJQVCLJqGfF-_jV3qt-84">
          <mxGeometry relative="1" as="geometry">
            <mxPoint x="-70" y="124" as="sourcePoint" />
            <mxPoint x="90" y="124" as="targetPoint" />
            <Array as="points">
              <mxPoint x="40" y="136" />
              <mxPoint x="76" y="136" />
            </Array>
          </mxGeometry>
        </mxCell>
        <mxCell id="X9svfKhv0r-nfiWAxkPa-15" value="1" style="text;html=1;strokeColor=none;fillColor=none;align=center;verticalAlign=middle;whiteSpace=wrap;rounded=0;" vertex="1" parent="1">
          <mxGeometry x="30" y="75" width="40" height="20" as="geometry" />
        </mxCell>
        <mxCell id="X9svfKhv0r-nfiWAxkPa-16" value="1" style="text;html=1;strokeColor=none;fillColor=none;align=center;verticalAlign=middle;whiteSpace=wrap;rounded=0;" vertex="1" parent="1">
          <mxGeometry y="176" width="40" height="20" as="geometry" />
        </mxCell>
        <mxCell id="X9svfKhv0r-nfiWAxkPa-18" value="" style="endArrow=none;html=1;edgeStyle=orthogonalEdgeStyle;entryX=0;entryY=0.5;entryDx=0;entryDy=0;exitX=0;exitY=0.5;exitDx=0;exitDy=0;" edge="1" parent="1" source="ByDJQVCLJqGfF-_jV3qt-2" target="ByDJQVCLJqGfF-_jV3qt-214">
          <mxGeometry relative="1" as="geometry">
            <mxPoint x="180" y="-93" as="sourcePoint" />
            <mxPoint x="220" y="-93" as="targetPoint" />
            <Array as="points">
              <mxPoint x="-30" y="265" />
              <mxPoint x="-30" y="-93" />
            </Array>
          </mxGeometry>
        </mxCell>
        <mxCell id="X9svfKhv0r-nfiWAxkPa-19" value="" style="endArrow=none;html=1;edgeStyle=orthogonalEdgeStyle;exitX=0.994;exitY=0.077;exitDx=0;exitDy=0;exitPerimeter=0;entryX=-0.025;entryY=0.231;entryDx=0;entryDy=0;entryPerimeter=0;" edge="1" parent="1" source="ByDJQVCLJqGfF-_jV3qt-82" target="ByDJQVCLJqGfF-_jV3qt-89">
          <mxGeometry relative="1" as="geometry">
            <mxPoint x="180" y="15.5" as="sourcePoint" />
            <mxPoint x="220" y="15.5" as="targetPoint" />
          </mxGeometry>
        </mxCell>
        <mxCell id="X9svfKhv0r-nfiWAxkPa-20" value="1" style="text;html=1;strokeColor=none;fillColor=none;align=center;verticalAlign=middle;whiteSpace=wrap;rounded=0;" vertex="1" parent="1">
          <mxGeometry x="170" y="-8" width="40" height="20" as="geometry" />
        </mxCell>
        <mxCell id="X9svfKhv0r-nfiWAxkPa-21" value="1" style="text;html=1;strokeColor=none;fillColor=none;align=center;verticalAlign=middle;whiteSpace=wrap;rounded=0;" vertex="1" parent="1">
          <mxGeometry x="200" y="-9" width="40" height="20" as="geometry" />
        </mxCell>
        <mxCell id="X9svfKhv0r-nfiWAxkPa-22" value="1" style="text;html=1;strokeColor=none;fillColor=none;align=center;verticalAlign=middle;whiteSpace=wrap;rounded=0;" vertex="1" parent="1">
          <mxGeometry x="-40" y="266" width="40" height="20" as="geometry" />
        </mxCell>
        <mxCell id="X9svfKhv0r-nfiWAxkPa-23" value="1" style="text;html=1;strokeColor=none;fillColor=none;align=center;verticalAlign=middle;whiteSpace=wrap;rounded=0;" vertex="1" parent="1">
          <mxGeometry x="200" y="-118" width="40" height="20" as="geometry" />
        </mxCell>
        <mxCell id="X9svfKhv0r-nfiWAxkPa-24" value="1" style="text;html=1;strokeColor=none;fillColor=none;align=center;verticalAlign=middle;whiteSpace=wrap;rounded=0;" vertex="1" parent="1">
          <mxGeometry x="460" y="-43" width="40" height="20" as="geometry" />
        </mxCell>
        <mxCell id="X9svfKhv0r-nfiWAxkPa-25" value="1" style="text;html=1;strokeColor=none;fillColor=none;align=center;verticalAlign=middle;whiteSpace=wrap;rounded=0;" vertex="1" parent="1">
          <mxGeometry x="80" y="180" width="40" height="20" as="geometry" />
        </mxCell>
        <mxCell id="X9svfKhv0r-nfiWAxkPa-30" value="" style="endArrow=none;html=1;edgeStyle=orthogonalEdgeStyle;entryX=0;entryY=0.192;entryDx=0;entryDy=0;entryPerimeter=0;exitX=0.5;exitY=0;exitDx=0;exitDy=0;" edge="1" parent="1" source="ByDJQVCLJqGfF-_jV3qt-17" target="ByDJQVCLJqGfF-_jV3qt-16">
          <mxGeometry relative="1" as="geometry">
            <mxPoint x="180" y="320" as="sourcePoint" />
            <mxPoint x="240" y="320" as="targetPoint" />
          </mxGeometry>
        </mxCell>
        <mxCell id="X9svfKhv0r-nfiWAxkPa-34" value="1" style="text;html=1;strokeColor=none;fillColor=none;align=center;verticalAlign=middle;whiteSpace=wrap;rounded=0;" vertex="1" parent="1">
          <mxGeometry x="155" y="246" width="40" height="20" as="geometry" />
        </mxCell>
        <mxCell id="X9svfKhv0r-nfiWAxkPa-35" value="*" style="text;html=1;strokeColor=none;fillColor=none;align=center;verticalAlign=middle;whiteSpace=wrap;rounded=0;" vertex="1" parent="1">
          <mxGeometry x="220" y="200" width="40" height="20" as="geometry" />
        </mxCell>
        <mxCell id="X9svfKhv0r-nfiWAxkPa-36" value="1" style="text;html=1;strokeColor=none;fillColor=none;align=center;verticalAlign=middle;whiteSpace=wrap;rounded=0;" vertex="1" parent="1">
          <mxGeometry x="220" y="296" width="40" height="20" as="geometry" />
        </mxCell>
        <mxCell id="X9svfKhv0r-nfiWAxkPa-37" value="1" style="text;html=1;strokeColor=none;fillColor=none;align=center;verticalAlign=middle;whiteSpace=wrap;rounded=0;" vertex="1" parent="1">
          <mxGeometry x="130" y="430" width="40" height="20" as="geometry" />
        </mxCell>
        <mxCell id="X9svfKhv0r-nfiWAxkPa-45" value="" style="endArrow=none;html=1;edgeStyle=orthogonalEdgeStyle;exitX=0.5;exitY=0;exitDx=0;exitDy=0;entryX=0.485;entryY=1;entryDx=0;entryDy=0;entryPerimeter=0;" edge="1" parent="1" source="ByDJQVCLJqGfF-_jV3qt-49" target="ByDJQVCLJqGfF-_jV3qt-42">
          <mxGeometry relative="1" as="geometry">
            <mxPoint x="450" y="590" as="sourcePoint" />
            <mxPoint x="490" y="550" as="targetPoint" />
          </mxGeometry>
        </mxCell>
        <mxCell id="X9svfKhv0r-nfiWAxkPa-48" value="" style="endArrow=none;html=1;edgeStyle=orthogonalEdgeStyle;entryX=0.573;entryY=-0.027;entryDx=0;entryDy=0;entryPerimeter=0;" edge="1" parent="1" source="ByDJQVCLJqGfF-_jV3qt-42" target="ByDJQVCLJqGfF-_jV3qt-53">
          <mxGeometry relative="1" as="geometry">
            <mxPoint x="520" y="540" as="sourcePoint" />
            <mxPoint x="605" y="550" as="targetPoint" />
            <Array as="points">
              <mxPoint x="518" y="560" />
              <mxPoint x="623" y="560" />
            </Array>
          </mxGeometry>
        </mxCell>
        <mxCell id="X9svfKhv0r-nfiWAxkPa-49" value="" style="endArrow=none;html=1;edgeStyle=orthogonalEdgeStyle;exitX=1;exitY=0.75;exitDx=0;exitDy=0;exitPerimeter=0;entryX=0;entryY=0.5;entryDx=0;entryDy=0;" edge="1" parent="1" source="ByDJQVCLJqGfF-_jV3qt-40" target="ByDJQVCLJqGfF-_jV3qt-72">
          <mxGeometry relative="1" as="geometry">
            <mxPoint x="575" y="485.5" as="sourcePoint" />
            <mxPoint x="665" y="485.5" as="targetPoint" />
          </mxGeometry>
        </mxCell>
        <mxCell id="X9svfKhv0r-nfiWAxkPa-50" value="" style="endArrow=none;html=1;edgeStyle=orthogonalEdgeStyle;exitX=1;exitY=0.5;exitDx=0;exitDy=0;entryX=0;entryY=0.5;entryDx=0;entryDy=0;" edge="1" parent="1" source="ByDJQVCLJqGfF-_jV3qt-96" target="ByDJQVCLJqGfF-_jV3qt-76">
          <mxGeometry relative="1" as="geometry">
            <mxPoint x="550" y="67.5" as="sourcePoint" />
            <mxPoint x="590" y="68" as="targetPoint" />
          </mxGeometry>
        </mxCell>
        <mxCell id="X9svfKhv0r-nfiWAxkPa-51" value="" style="endArrow=none;html=1;edgeStyle=orthogonalEdgeStyle;exitX=1;exitY=0.231;exitDx=0;exitDy=0;exitPerimeter=0;entryX=0.589;entryY=1;entryDx=0;entryDy=0;entryPerimeter=0;" edge="1" parent="1" source="ByDJQVCLJqGfF-_jV3qt-7" target="ByDJQVCLJqGfF-_jV3qt-230">
          <mxGeometry relative="1" as="geometry">
            <mxPoint x="560" y="266" as="sourcePoint" />
            <mxPoint x="650" y="266" as="targetPoint" />
            <Array as="points">
              <mxPoint x="630" y="266" />
              <mxPoint x="630" y="-90" />
              <mxPoint x="673" y="-90" />
            </Array>
          </mxGeometry>
        </mxCell>
        <mxCell id="X9svfKhv0r-nfiWAxkPa-52" value="" style="endArrow=none;html=1;edgeStyle=orthogonalEdgeStyle;entryX=0.75;entryY=0;entryDx=0;entryDy=0;exitX=0.406;exitY=0.006;exitDx=0;exitDy=0;exitPerimeter=0;" edge="1" parent="1" source="ByDJQVCLJqGfF-_jV3qt-27" target="ByDJQVCLJqGfF-_jV3qt-136">
          <mxGeometry relative="1" as="geometry">
            <mxPoint x="737" y="-80" as="sourcePoint" />
            <mxPoint x="827" y="-80" as="targetPoint" />
            <Array as="points">
              <mxPoint x="767" y="22" />
              <mxPoint x="767" y="-90" />
              <mxPoint x="840" y="-90" />
            </Array>
          </mxGeometry>
        </mxCell>
        <mxCell id="X9svfKhv0r-nfiWAxkPa-53" value="" style="endArrow=none;html=1;edgeStyle=orthogonalEdgeStyle;exitX=0.75;exitY=0;exitDx=0;exitDy=0;entryX=0;entryY=0.5;entryDx=0;entryDy=0;" edge="1" parent="1" source="ByDJQVCLJqGfF-_jV3qt-27" target="ByDJQVCLJqGfF-_jV3qt-107">
          <mxGeometry relative="1" as="geometry">
            <mxPoint x="880" y="-53" as="sourcePoint" />
            <mxPoint x="970" y="-53" as="targetPoint" />
          </mxGeometry>
        </mxCell>
        <mxCell id="X9svfKhv0r-nfiWAxkPa-54" value="" style="endArrow=none;html=1;edgeStyle=orthogonalEdgeStyle;exitX=1;exitY=0.5;exitDx=0;exitDy=0;" edge="1" parent="1" source="ByDJQVCLJqGfF-_jV3qt-77">
          <mxGeometry relative="1" as="geometry">
            <mxPoint x="960" y="86" as="sourcePoint" />
            <mxPoint x="1050" y="86" as="targetPoint" />
          </mxGeometry>
        </mxCell>
        <mxCell id="X9svfKhv0r-nfiWAxkPa-55" value="" style="endArrow=none;html=1;edgeStyle=orthogonalEdgeStyle;entryX=1;entryY=0;entryDx=0;entryDy=0;" edge="1" parent="1" target="ByDJQVCLJqGfF-_jV3qt-164">
          <mxGeometry relative="1" as="geometry">
            <mxPoint x="950" y="197" as="sourcePoint" />
            <mxPoint x="1020" y="196" as="targetPoint" />
            <Array as="points">
              <mxPoint x="953" y="210" />
              <mxPoint x="1050" y="210" />
            </Array>
          </mxGeometry>
        </mxCell>
        <mxCell id="X9svfKhv0r-nfiWAxkPa-56" value="" style="endArrow=none;html=1;edgeStyle=orthogonalEdgeStyle;exitX=1.01;exitY=0.115;exitDx=0;exitDy=0;exitPerimeter=0;entryX=0.006;entryY=0.231;entryDx=0;entryDy=0;entryPerimeter=0;" edge="1" parent="1" source="ByDJQVCLJqGfF-_jV3qt-80" target="ByDJQVCLJqGfF-_jV3qt-151">
          <mxGeometry relative="1" as="geometry">
            <mxPoint x="960" y="316" as="sourcePoint" />
            <mxPoint x="1010" y="316" as="targetPoint" />
          </mxGeometry>
        </mxCell>
        <mxCell id="X9svfKhv0r-nfiWAxkPa-57" value="" style="endArrow=none;html=1;edgeStyle=orthogonalEdgeStyle;exitX=1;exitY=0;exitDx=0;exitDy=0;entryX=0.188;entryY=-0.036;entryDx=0;entryDy=0;entryPerimeter=0;" edge="1" parent="1" source="ByDJQVCLJqGfF-_jV3qt-148" target="ByDJQVCLJqGfF-_jV3qt-142">
          <mxGeometry relative="1" as="geometry">
            <mxPoint x="800" y="372" as="sourcePoint" />
            <mxPoint x="890" y="372" as="targetPoint" />
            <Array as="points">
              <mxPoint x="790" y="360" />
              <mxPoint x="890" y="360" />
            </Array>
          </mxGeometry>
        </mxCell>
        <mxCell id="X9svfKhv0r-nfiWAxkPa-58" value="" style="endArrow=none;html=1;edgeStyle=orthogonalEdgeStyle;exitX=0.99;exitY=1;exitDx=0;exitDy=0;exitPerimeter=0;entryX=0;entryY=0.25;entryDx=0;entryDy=0;" edge="1" parent="1" source="ByDJQVCLJqGfF-_jV3qt-80" target="ByDJQVCLJqGfF-_jV3qt-155">
          <mxGeometry relative="1" as="geometry">
            <mxPoint x="940" y="372" as="sourcePoint" />
            <mxPoint x="1030" y="372" as="targetPoint" />
            <Array as="points">
              <mxPoint x="947" y="370" />
              <mxPoint x="1030" y="370" />
              <mxPoint x="1030" y="454" />
            </Array>
          </mxGeometry>
        </mxCell>
        <mxCell id="X9svfKhv0r-nfiWAxkPa-59" value="" style="endArrow=none;html=1;edgeStyle=orthogonalEdgeStyle;exitX=0;exitY=0.5;exitDx=0;exitDy=0;entryX=1.014;entryY=0.115;entryDx=0;entryDy=0;entryPerimeter=0;" edge="1" parent="1" source="ByDJQVCLJqGfF-_jV3qt-169" target="ByDJQVCLJqGfF-_jV3qt-113">
          <mxGeometry relative="1" as="geometry">
            <mxPoint x="1300" y="-108.5" as="sourcePoint" />
            <mxPoint x="1300" y="-130" as="targetPoint" />
            <Array as="points">
              <mxPoint x="1330" y="-145" />
              <mxPoint x="1330" y="-129" />
            </Array>
          </mxGeometry>
        </mxCell>
        <mxCell id="X9svfKhv0r-nfiWAxkPa-60" value="" style="endArrow=none;html=1;edgeStyle=orthogonalEdgeStyle;" edge="1" parent="1">
          <mxGeometry relative="1" as="geometry">
            <mxPoint x="960" y="810" as="sourcePoint" />
            <mxPoint x="1050" y="810" as="targetPoint" />
          </mxGeometry>
        </mxCell>
        <mxCell id="X9svfKhv0r-nfiWAxkPa-61" value="" style="endArrow=none;html=1;edgeStyle=orthogonalEdgeStyle;" edge="1" parent="1">
          <mxGeometry relative="1" as="geometry">
            <mxPoint x="970" y="820" as="sourcePoint" />
            <mxPoint x="1060" y="820" as="targetPoint" />
          </mxGeometry>
        </mxCell>
        <mxCell id="X9svfKhv0r-nfiWAxkPa-62" value="" style="endArrow=none;html=1;edgeStyle=orthogonalEdgeStyle;" edge="1" parent="1">
          <mxGeometry relative="1" as="geometry">
            <mxPoint x="980" y="830" as="sourcePoint" />
            <mxPoint x="1070" y="830" as="targetPoint" />
          </mxGeometry>
        </mxCell>
        <mxCell id="X9svfKhv0r-nfiWAxkPa-63" value="1" style="text;html=1;strokeColor=none;fillColor=none;align=center;verticalAlign=middle;whiteSpace=wrap;rounded=0;" vertex="1" parent="1">
          <mxGeometry x="520" y="526" width="40" height="20" as="geometry" />
        </mxCell>
        <mxCell id="X9svfKhv0r-nfiWAxkPa-64" value="1" style="text;html=1;strokeColor=none;fillColor=none;align=center;verticalAlign=middle;whiteSpace=wrap;rounded=0;" vertex="1" parent="1">
          <mxGeometry x="460" y="526" width="40" height="20" as="geometry" />
        </mxCell>
        <mxCell id="X9svfKhv0r-nfiWAxkPa-65" value="1" style="text;html=1;strokeColor=none;fillColor=none;align=center;verticalAlign=middle;whiteSpace=wrap;rounded=0;" vertex="1" parent="1">
          <mxGeometry x="410" y="578" width="40" height="20" as="geometry" />
        </mxCell>
        <mxCell id="X9svfKhv0r-nfiWAxkPa-66" value="1" style="text;html=1;strokeColor=none;fillColor=none;align=center;verticalAlign=middle;whiteSpace=wrap;rounded=0;" vertex="1" parent="1">
          <mxGeometry x="570" y="462" width="40" height="20" as="geometry" />
        </mxCell>
        <mxCell id="X9svfKhv0r-nfiWAxkPa-67" value="1" style="text;html=1;strokeColor=none;fillColor=none;align=center;verticalAlign=middle;whiteSpace=wrap;rounded=0;" vertex="1" parent="1">
          <mxGeometry x="640" y="512" width="40" height="20" as="geometry" />
        </mxCell>
        <mxCell id="X9svfKhv0r-nfiWAxkPa-68" value="1" style="text;html=1;strokeColor=none;fillColor=none;align=center;verticalAlign=middle;whiteSpace=wrap;rounded=0;" vertex="1" parent="1">
          <mxGeometry x="585" y="-80" width="40" height="20" as="geometry" />
        </mxCell>
        <mxCell id="X9svfKhv0r-nfiWAxkPa-69" value="1" style="text;html=1;strokeColor=none;fillColor=none;align=center;verticalAlign=middle;whiteSpace=wrap;rounded=0;" vertex="1" parent="1">
          <mxGeometry x="600" y="190" width="40" height="20" as="geometry" />
        </mxCell>
        <mxCell id="X9svfKhv0r-nfiWAxkPa-72" value="" style="endArrow=none;html=1;edgeStyle=orthogonalEdgeStyle;exitX=1;exitY=0.5;exitDx=0;exitDy=0;entryX=0.5;entryY=0;entryDx=0;entryDy=0;" edge="1" parent="1" source="ByDJQVCLJqGfF-_jV3qt-107" target="ByDJQVCLJqGfF-_jV3qt-173">
          <mxGeometry relative="1" as="geometry">
            <mxPoint x="1280" y="-89.5" as="sourcePoint" />
            <mxPoint x="1330" y="-89.5" as="targetPoint" />
            <Array as="points">
              <mxPoint x="1290" y="-93" />
              <mxPoint x="1290" y="-60" />
              <mxPoint x="1460" y="-60" />
            </Array>
          </mxGeometry>
        </mxCell>
        <mxCell id="X9svfKhv0r-nfiWAxkPa-73" value="" style="endArrow=none;html=1;edgeStyle=orthogonalEdgeStyle;entryX=0.5;entryY=0;entryDx=0;entryDy=0;" edge="1" parent="1" target="ByDJQVCLJqGfF-_jV3qt-177">
          <mxGeometry relative="1" as="geometry">
            <mxPoint x="1270" y="-43" as="sourcePoint" />
            <mxPoint x="1350" y="-43" as="targetPoint" />
            <Array as="points">
              <mxPoint x="1360" y="-43" />
              <mxPoint x="1360" y="60" />
              <mxPoint x="1460" y="60" />
            </Array>
          </mxGeometry>
        </mxCell>
        <mxCell id="X9svfKhv0r-nfiWAxkPa-74" value="" style="endArrow=none;html=1;edgeStyle=orthogonalEdgeStyle;exitX=0;exitY=1;exitDx=0;exitDy=0;entryX=0.5;entryY=0;entryDx=0;entryDy=0;" edge="1" parent="1" source="X9svfKhv0r-nfiWAxkPa-84" target="ByDJQVCLJqGfF-_jV3qt-184">
          <mxGeometry relative="1" as="geometry">
            <mxPoint x="1280" y="-2" as="sourcePoint" />
            <mxPoint x="1330" y="-2" as="targetPoint" />
            <Array as="points">
              <mxPoint x="1340" y="-20" />
              <mxPoint x="1340" y="180" />
              <mxPoint x="1460" y="180" />
            </Array>
          </mxGeometry>
        </mxCell>
        <mxCell id="X9svfKhv0r-nfiWAxkPa-75" value="" style="endArrow=none;html=1;edgeStyle=orthogonalEdgeStyle;entryX=0;entryY=0.5;entryDx=0;entryDy=0;exitX=1.01;exitY=0.098;exitDx=0;exitDy=0;exitPerimeter=0;" edge="1" parent="1" source="ByDJQVCLJqGfF-_jV3qt-118" target="ByDJQVCLJqGfF-_jV3qt-174">
          <mxGeometry relative="1" as="geometry">
            <mxPoint x="1280" y="15.5" as="sourcePoint" />
            <mxPoint x="1330" y="15.5" as="targetPoint" />
          </mxGeometry>
        </mxCell>
        <mxCell id="X9svfKhv0r-nfiWAxkPa-77" value="" style="endArrow=none;html=1;edgeStyle=orthogonalEdgeStyle;exitX=1;exitY=0.5;exitDx=0;exitDy=0;entryX=-0.019;entryY=0.14;entryDx=0;entryDy=0;entryPerimeter=0;" edge="1" parent="1" source="ByDJQVCLJqGfF-_jV3qt-122" target="ByDJQVCLJqGfF-_jV3qt-177">
          <mxGeometry relative="1" as="geometry">
            <mxPoint x="1270" y="120" as="sourcePoint" />
            <mxPoint x="1320" y="120" as="targetPoint" />
          </mxGeometry>
        </mxCell>
        <mxCell id="X9svfKhv0r-nfiWAxkPa-78" value="" style="endArrow=none;html=1;edgeStyle=orthogonalEdgeStyle;exitX=1;exitY=0.5;exitDx=0;exitDy=0;entryX=0;entryY=0.5;entryDx=0;entryDy=0;" edge="1" parent="1" source="ByDJQVCLJqGfF-_jV3qt-121" target="ByDJQVCLJqGfF-_jV3qt-185">
          <mxGeometry relative="1" as="geometry">
            <mxPoint x="1300" y="219" as="sourcePoint" />
            <mxPoint x="1350" y="219" as="targetPoint" />
          </mxGeometry>
        </mxCell>
        <mxCell id="X9svfKhv0r-nfiWAxkPa-79" value="1" style="text;html=1;strokeColor=none;fillColor=none;align=center;verticalAlign=middle;whiteSpace=wrap;rounded=0;" vertex="1" parent="1">
          <mxGeometry x="1340" y="-169" width="40" height="20" as="geometry" />
        </mxCell>
        <mxCell id="X9svfKhv0r-nfiWAxkPa-81" value="1" style="text;html=1;strokeColor=none;fillColor=none;align=center;verticalAlign=middle;whiteSpace=wrap;rounded=0;" vertex="1" parent="1">
          <mxGeometry x="1260" y="-152" width="40" height="20" as="geometry" />
        </mxCell>
        <mxCell id="X9svfKhv0r-nfiWAxkPa-82" value="1" style="text;html=1;strokeColor=none;fillColor=none;align=center;verticalAlign=middle;whiteSpace=wrap;rounded=0;" vertex="1" parent="1">
          <mxGeometry x="1250" y="-86" width="60" height="20" as="geometry" />
        </mxCell>
        <mxCell id="X9svfKhv0r-nfiWAxkPa-83" value="1" style="text;html=1;strokeColor=none;fillColor=none;align=center;verticalAlign=middle;whiteSpace=wrap;rounded=0;" vertex="1" parent="1">
          <mxGeometry x="1430" y="-54" width="40" height="20" as="geometry" />
        </mxCell>
        <mxCell id="X9svfKhv0r-nfiWAxkPa-84" value="1" style="text;html=1;strokeColor=none;fillColor=none;align=center;verticalAlign=middle;whiteSpace=wrap;rounded=0;" vertex="1" parent="1">
          <mxGeometry x="1260" y="-40" width="40" height="20" as="geometry" />
        </mxCell>
        <mxCell id="X9svfKhv0r-nfiWAxkPa-85" value="*" style="text;html=1;strokeColor=none;fillColor=none;align=center;verticalAlign=middle;whiteSpace=wrap;rounded=0;" vertex="1" parent="1">
          <mxGeometry x="1430" y="60" width="80" height="20" as="geometry" />
        </mxCell>
        <mxCell id="X9svfKhv0r-nfiWAxkPa-87" value="1" style="text;html=1;strokeColor=none;fillColor=none;align=center;verticalAlign=middle;whiteSpace=wrap;rounded=0;" vertex="1" parent="1">
          <mxGeometry x="1230" y="-66" width="100" height="20" as="geometry" />
        </mxCell>
        <mxCell id="X9svfKhv0r-nfiWAxkPa-88" value="*" style="text;html=1;strokeColor=none;fillColor=none;align=center;verticalAlign=middle;whiteSpace=wrap;rounded=0;" vertex="1" parent="1">
          <mxGeometry x="1450" y="170" width="40" height="20" as="geometry" />
        </mxCell>
        <mxCell id="X9svfKhv0r-nfiWAxkPa-89" value="1" style="text;html=1;strokeColor=none;fillColor=none;align=center;verticalAlign=middle;whiteSpace=wrap;rounded=0;" vertex="1" parent="1">
          <mxGeometry x="1240" y="20" width="60" height="20" as="geometry" />
        </mxCell>
        <mxCell id="X9svfKhv0r-nfiWAxkPa-90" value="1" style="text;html=1;strokeColor=none;fillColor=none;align=center;verticalAlign=middle;whiteSpace=wrap;rounded=0;" vertex="1" parent="1">
          <mxGeometry x="1350" y="-14" width="40" height="20" as="geometry" />
        </mxCell>
        <mxCell id="X9svfKhv0r-nfiWAxkPa-92" value="1" style="text;html=1;strokeColor=none;fillColor=none;align=center;verticalAlign=middle;whiteSpace=wrap;rounded=0;" vertex="1" parent="1">
          <mxGeometry x="1240" y="95" width="60" height="20" as="geometry" />
        </mxCell>
        <mxCell id="X9svfKhv0r-nfiWAxkPa-93" value="*" style="text;html=1;strokeColor=none;fillColor=none;align=center;verticalAlign=middle;whiteSpace=wrap;rounded=0;" vertex="1" parent="1">
          <mxGeometry x="1350" y="72" width="40" height="20" as="geometry" />
        </mxCell>
        <mxCell id="X9svfKhv0r-nfiWAxkPa-94" value="1" style="text;html=1;strokeColor=none;fillColor=none;align=center;verticalAlign=middle;whiteSpace=wrap;rounded=0;" vertex="1" parent="1">
          <mxGeometry x="1250" y="130" width="40" height="20" as="geometry" />
        </mxCell>
        <mxCell id="X9svfKhv0r-nfiWAxkPa-95" value="*" style="text;html=1;strokeColor=none;fillColor=none;align=center;verticalAlign=middle;whiteSpace=wrap;rounded=0;" vertex="1" parent="1">
          <mxGeometry x="1350" y="210" width="40" height="20" as="geometry" />
        </mxCell>
      </root>
    </mxGraphModel>
  </diagram>
</mxfile>
